<?xml version="1.0" encoding="UTF-8"?>
<svg id="Layer_2" data-name="Layer 2" xmlns="http://www.w3.org/2000/svg" viewBox="0 0 136.49 136.48">
  <defs>
    <style>
      .cls-1 {
        fill: #832286;
      }
    </style>
  </defs>
  <g id="Layer_1-2" data-name="Layer 1">
    <g>
      <path class="cls-1" d="M13.58,136.48h-4.53c-4.41-1.45-7.61-4.65-9.06-9.06v-4.53c.84-3.02,2.1-5.6,4.13-7.99l29.58-29.82v-1.62c-14.85-24.3-8.44-55.72,14.26-72.55,32.81-24.32,80.09-5.86,87.52,34.15,8.72,46.93-41.56,82.37-82.48,57.71h-1.62s-29.82,29.58-29.82,29.58c-2.4,2.03-4.97,3.29-7.99,4.13ZM77.19,14.83c-27.68,2.23-44.61,32.16-33.29,57.37,13.19,29.37,54.33,32.33,71.54,5.13,18.25-28.85-4.44-65.21-38.25-62.49Z"/>
      <path class="cls-1" d="M80.12,22.29c4.88-.41,14.98.45,18.9,3.58s2.04,9.82-2.99,10.2c-2.73.21-4.91-1.31-7.55-1.8-10.23-1.89-20.25,2.3-25.74,11.13-.86,1.39-1.47,3.25-2.44,4.49-4.11,5.25-12.46,1.04-9.83-6.11,4.23-11.5,17.64-20.49,29.64-21.5Z"/>
    </g>
  </g>
</svg>