<?xml version="1.0" encoding="UTF-8"?>
<svg id="Layer_2" data-name="Layer 2" xmlns="http://www.w3.org/2000/svg" viewBox="0 0 136.71 136.65">
  <defs>
    <style>
      .cls-1 {
        fill: #832286;
      }
    </style>
  </defs>
  <g id="Layer_1-2" data-name="Layer 1">
    <g>
      <path class="cls-1" d="M70.75,61.23v47.5c-.29,2.29-3.45,2.63-4.55.71l-.16-48.21c-19.8-1.56-32.99-21.16-26.84-40.22C46.51-1.65,76.57-7.41,91.91,10.81c16.13,19.17,3.53,48.57-21.16,50.42ZM63.59,4.86c-2.96.16-2.65,4.69.2,4.53s2.65-4.69-.2-4.53ZM43.78,27.62c3.53,2.98,4.5-4.26,5.45-6.29.76-1.62,2.22-3.77,3.43-5.1,1.38-1.51,5.84-3.97,2.95-6.18-1.18-.9-2.12-.39-3.19.35-2.8,1.93-6.25,6.62-7.6,9.75-.7,1.62-2.54,6.19-1.04,7.46Z"/>
      <path class="cls-1" d="M15.68,98.94c3.39-.67,4.59,2.87,2.11,4.46-2.02,1.3-4.95,2.05-7.3,3.58-16.52,10.78,9.78,18.55,18.2,20.56,17.36,4.14,37.35,4.92,55.13,3.67,11.88-.84,35.76-4.36,44.85-12.2,6.59-5.67,1.24-10.19-4.41-13.24-1.75-.95-6.28-2.17-6.49-4.1-.43-3.83,3.18-2.8,5.42-1.88,19.55,8.05,16.83,21.21-1.29,28.62-26.81,10.98-80.21,10.98-107.02,0-7.66-3.14-19.26-10.08-13.18-19.94,2.06-3.35,10.19-8.79,13.98-9.54Z"/>
      <path class="cls-1" d="M55.39,94.54c2.44-.14,6.37-.89,5.96,2.72-.29,2.58-3.67,1.99-5.46,2.2-7.32.84-17.84,2.06-24.27,5.73-4.26,2.43-3.97,3.98.21,6.27,14.7,8.08,50.87,7.29,66.77,2.49,2.04-.62,9.49-3.23,9.71-5.56.18-1.97-5.31-4.24-6.84-4.81-7.87-2.93-16.34-3.6-24.63-4.48-1.76-.7-2.01-3.44-.39-4.35,1.2-.67,5.72-.14,7.36.02,7.14.68,24.76,3.62,28.5,10.31,3.24,5.79-2.91,9.88-7.49,11.88-16.79,7.34-59.93,7.93-75.83-1.48-4.15-2.46-7.51-6.56-3.97-11.27,4.7-6.24,22.8-9.2,30.35-9.64Z"/>
    </g>
  </g>
</svg>