<?xml version="1.0" encoding="UTF-8"?>
<svg id="Layer_2" data-name="Layer 2" xmlns="http://www.w3.org/2000/svg" viewBox="0 0 152.26 136.65">
  <defs>
    <style>
      .cls-1 {
        fill: #832286;
      }
    </style>
  </defs>
  <g id="Layer_1-2" data-name="Layer 1">
    <g>
      <path class="cls-1" d="M152.26,75.91c-2.37,2.88-4.69,5.95-7.28,8.63-4.33,4.48-5.79,4.56-10.12,0-1.77-1.86-4.99-5.3-6.39-7.29-2.22-3.18-.27-7.65,3.69-7.55,1.21.03,2.09.82,3.15,1.16,1.12-23.97-13.09-46.79-34.88-56.54-22.21-9.94-48.82-5.22-66.06,11.94-2.28,2.27-4.12,5.16-6.23,7.44-4.27,4.61-10.16.37-7.75-4.77,1.7-3.63,8.69-10.38,11.91-13.06C63.04-9.73,108.93-3.61,131.99,28.85c8.66,12.18,12.97,27.03,12.54,42.01,1.01-.31,1.76-1.04,2.91-1.13,2.18-.17,4.01,1.29,4.82,3.21v2.97Z"/>
      <path class="cls-1" d="M89.58,35.14c3.01,1.24,5.79,2.91,8.47,4.74,4.1-1.43,8.41-6.9,12.54-2.42,2.61,5.07,6.21,9.99,8.72,15.07,3.53,7.16-3.17,7.55-7.65,10.91l-.08,9.63c3.93,3.09,11.04,3.9,8.03,10.49-1.61,3.53-6.44,12.02-8.73,15.05-4.01,5.32-8.28-.08-12.58-1.87-2.92,1.55-5.49,3.61-8.64,4.73-.79,5.23,2.14,11.57-5.33,12.21-4.24.36-12.14.36-16.37,0-2.13-.18-4.64-1.14-5.12-3.5-.31-1.55.34-8.27-.36-8.85-.5-.41-3.14-1.33-4.07-1.88-1.43-.84-2.7-1.9-4.13-2.74-4.31,1.43-8.71,7.26-12.75,2.08-2-2.57-7.91-12.81-9.14-15.83-2.36-5.76,4.67-7.23,8.25-9.72-.21-3.18-.39-6.48.08-9.64-4.34-3.62-11.33-3.77-7.73-11.08,1.71-3.47,6.48-12.29,8.72-15.06,3.71-4.6,8.69,1.07,12.54,2.42,2.75-1.71,5.42-3.57,8.47-4.74.62-3.86-1.8-10.6,3.37-11.94,2.6-.67,15.65-.5,18.84-.21,6.69.6,4.06,7.58,4.64,12.15ZM74.3,55.18c-16.57,2-14.31,28.16,3.45,26.34,16.84-1.72,14.68-28.53-3.45-26.34Z"/>
      <path class="cls-1" d="M16.99,65.81c-1.28,27.87,17.85,53.3,44.83,59.97,22.44,5.54,43.73-1.97,59.08-18.64,1.44-1.56,3.4-4.99,5.2-5.8,3.69-1.67,7.49,1.93,6.09,5.79-1.06,2.92-7.46,9.5-9.95,11.75-31.39,28.45-80.7,21.88-103.59-13.56-7.57-11.72-11.27-25.52-10.88-39.51-1.06.34-1.94,1.13-3.15,1.16-3.95.1-5.92-4.37-3.69-7.55,1.34-1.92,6.85-8.17,8.61-9.52,3.44-2.65,5.56-.18,7.89,2.23,1.76,1.82,5,5.31,6.39,7.29,2.21,3.17.16,7.65-3.69,7.55-1.21-.03-2.09-.82-3.15-1.16Z"/>
    </g>
  </g>
</svg>