<?xml version="1.0" encoding="UTF-8"?>
<svg id="Layer_2" data-name="Layer 2" xmlns="http://www.w3.org/2000/svg" xmlns:xlink="http://www.w3.org/1999/xlink" viewBox="0 0 84.15 48.81">
  <defs>
    <style>
      .cls-1 {
        mask: url(#mask);
      }

      .cls-2 {
        fill: url(#linear-gradient-2);
      }

      .cls-3 {
        fill: url(#linear-gradient);
      }

      .cls-4 {
        mask: url(#mask-1);
      }

      .cls-5 {
        clip-path: url(#clippath-1);
      }

      .cls-6 {
        fill: #fff;
      }

      .cls-7 {
        clip-path: url(#clippath);
      }
    </style>
    <clipPath id="clippath">
      <path class="cls-6" d="M37.04,12.62c-11.3,1.01-18.04,7.43-18.04,17.18,0,4.25,2.31,8.53,6.5,12.06,5.3,4.47,12.6,6.95,19.93,6.95,1.79,0,3.59-.15,5.35-.45,12.71-2.18,24.1-10.87,32.95-25.12.8-1.29.4-2.98-.89-3.78-1.29-.8-2.98-.4-3.78.88-8.11,13.06-17.94,20.67-29.21,22.6-8.91,1.53-16.6-1.73-20.82-5.29-2.89-2.43-4.54-5.3-4.54-7.86,0-9.17,8.17-11.27,13.04-11.71,7.29-.65,12.47,4.6,12.53,4.66,1.04,1.09,2.78,1.13,3.87.09,1.1-1.04,1.14-2.78.1-3.88-.26-.28-6.22-6.42-15.23-6.42-.57,0-1.16.03-1.76.08"/>
    </clipPath>
    <linearGradient id="linear-gradient" x1="-257.79" y1="-281.23" x2="-256.53" y2="-281.23" gradientTransform="translate(42012.29 38444.64) rotate(90) scale(149.2 -149.2)" gradientUnits="userSpaceOnUse">
      <stop offset="0" stop-color="#f7f7f7"/>
      <stop offset="1" stop-color="#f7f7f7"/>
    </linearGradient>
    <mask id="mask" x="1.12" y="-19.76" width="101.29" height="100.87" maskUnits="userSpaceOnUse">
      <rect class="cls-3" x="15.03" y="-4.32" width="73.48" height="69.99" transform="translate(-7.58 40.62) rotate(-40.17)"/>
    </mask>
    <clipPath id="clippath-1">
      <path class="cls-6" d="M33.7.45C20.87,2.63,9.37,11.31.42,25.54c-.81,1.28-.42,2.98.86,3.79,1.28.81,2.98.42,3.79-.86C13.27,15.41,23.21,7.81,34.62,5.87c7.49-1.27,15.81.84,21.18,5.37,2.86,2.41,4.49,5.24,4.49,7.76,0,9.16-8.27,11.26-13.2,11.69-7.35.65-12.58-4.55-12.7-4.66-1.05-1.09-2.78-1.12-3.88-.07-1.09,1.05-1.13,2.79-.08,3.88.27.28,6.26,6.4,15.34,6.4.58,0,1.18-.03,1.79-.08,11.41-1.01,18.21-7.42,18.21-17.16,0-4.2-2.29-8.45-6.44-11.96C53.98,2.52,46.57,0,39.11,0c-1.81,0-3.62.15-5.41.45"/>
    </clipPath>
    <linearGradient id="linear-gradient-2" x1="-257.79" y1="-281.22" x2="-256.53" y2="-281.22" gradientTransform="translate(41991.75 38453.98) rotate(90) scale(149.2 -149.2)" xlink:href="#linear-gradient"/>
    <mask id="mask-1" x="-18.25" y="-32.61" width="101.89" height="101.47" maskUnits="userSpaceOnUse">
      <rect class="cls-2" x="-4.27" y="-17.06" width="73.94" height="70.37" transform="translate(-3.98 25.36) rotate(-40.17)"/>
    </mask>
  </defs>
  <g id="Layer_1-2" data-name="Layer 1">
    <g>
      <g>
        <path class="cls-6" d="M37.04,12.62c-11.3,1.01-18.04,7.43-18.04,17.18,0,4.25,2.31,8.53,6.5,12.06,5.3,4.47,12.6,6.95,19.93,6.95,1.79,0,3.59-.15,5.35-.45,12.71-2.18,24.1-10.87,32.95-25.12.8-1.29.4-2.98-.89-3.78-1.29-.8-2.98-.4-3.78.88-8.11,13.06-17.94,20.67-29.21,22.6-8.91,1.53-16.6-1.73-20.82-5.29-2.89-2.43-4.54-5.3-4.54-7.86,0-9.17,8.17-11.27,13.04-11.71,7.29-.65,12.47,4.6,12.53,4.66,1.04,1.09,2.78,1.13,3.87.09,1.1-1.04,1.14-2.78.1-3.88-.26-.28-6.22-6.42-15.23-6.42-.57,0-1.16.03-1.76.08"/>
        <g class="cls-7">
          <g class="cls-1">
            <rect class="cls-6" x="15.03" y="-4.32" width="73.48" height="69.99" transform="translate(-7.58 40.62) rotate(-40.17)"/>
          </g>
        </g>
      </g>
      <g>
        <path class="cls-6" d="M33.7.45C20.87,2.63,9.37,11.31.42,25.54c-.81,1.28-.42,2.98.86,3.79,1.28.81,2.98.42,3.79-.86C13.27,15.41,23.21,7.81,34.62,5.87c7.49-1.27,15.81.84,21.18,5.37,2.86,2.41,4.49,5.24,4.49,7.76,0,9.16-8.27,11.26-13.2,11.69-7.35.65-12.58-4.55-12.7-4.66-1.05-1.09-2.78-1.12-3.88-.07-1.09,1.05-1.13,2.79-.08,3.88.27.28,6.26,6.4,15.34,6.4.58,0,1.18-.03,1.79-.08,11.41-1.01,18.21-7.42,18.21-17.16,0-4.2-2.29-8.45-6.44-11.96C53.98,2.52,46.57,0,39.11,0c-1.81,0-3.62.15-5.41.45"/>
        <g class="cls-5">
          <g class="cls-4">
            <rect class="cls-6" x="-4.27" y="-17.06" width="73.94" height="70.37" transform="translate(-3.98 25.36) rotate(-40.17)"/>
          </g>
        </g>
      </g>
    </g>
  </g>
</svg>