<svg xmlns="http://www.w3.org/2000/svg" viewBox="0 0 1193 540"><g fill="none" stroke-width="2"><path stroke="#f7cfcc" d="M260.25 35.29q-59.7 7.24-107.54 43.22a1.59 1.05 87.7 0 0-.48.8q-.18.67-.69 1.19" vector-effect="non-scaling-stroke"/><path stroke="#9c90b5" d="M151.54 80.5Q128.61 93.13 109 110.46" vector-effect="non-scaling-stroke"/><path stroke="#9387b1" d="M109 110.46C-2.02 209.41 12.05 389.3 138.96 467.5" vector-effect="non-scaling-stroke"/><path stroke="#a194b8" d="m138.96 467.5 13.78 8.09" vector-effect="non-scaling-stroke"/><path stroke="#a69dbf" d="M152.74 475.59q20.65 11.11 43.26 17.45" vector-effect="non-scaling-stroke"/><path stroke="#b7afcb" d="M196 493.04q44.65 12.81 90.79 6.71" vector-effect="non-scaling-stroke"/><path stroke="#cec8db" d="M286.79 499.75q56.73-7.37 102.74-41.02.32-.22.61-.75l.82-1.48" vector-effect="non-scaling-stroke"/><path stroke="#d59ba3" d="m390.96 456.5 18.58-11.75" vector-effect="non-scaling-stroke"/><path stroke="#ed958e" d="M409.54 444.75q17.36-11.04 32.72-25.99c105.95-103.05 85.97-277.72-41.22-353.51" vector-effect="non-scaling-stroke"/><path stroke="#f0a7a2" d="M401.04 65.25q-26.06-15.77-55.54-23.54" vector-effect="non-scaling-stroke"/><path stroke="#f3b9b5" d="M345.5 41.71q-41.95-11.55-85.25-6.42" vector-effect="non-scaling-stroke"/><path stroke="#e46057" d="M345.5 41.71q-1.02 2.8 1.52 3.66a1.04.84 5.4 0 1 .63.62c.67 2.32-.18 4.32.06 6.44.42 3.73.65 7.42 1.1 11.15q.55 4.61-1.79 8.84" vector-effect="non-scaling-stroke"/><path stroke="#c5575e" d="m347.02 72.42-18.07-6.96" vector-effect="non-scaling-stroke"/><path stroke="#b15a6d" d="M328.95 65.46q-30.49-10.13-62.63-11.39" vector-effect="non-scaling-stroke"/><path stroke="#eb8982" d="M266.32 54.07q-.28-6.23-2.83-11.68-.28-.59-.25-.88.22-2.66-1.08-4.98a1.16 1.13-7.2 0 0-.72-.54q-.68-.16-1.19-.7" vector-effect="non-scaling-stroke"/><path stroke="#b0313e" d="M405.25 109.46q-.44 2.27-.36 4.6c.15 4.1-1.61 8.16-2.28 12.22a.64.42-83.5 0 0 .37.73L404 127a.58.46 88.1 0 1 .47.55q.44 9.45.66 18.95c.04 1.65-.38 2.6-2.21 1.52q-.48-.28-.25.21l1.08 2.31" vector-effect="non-scaling-stroke"/><path stroke="#b98498" d="m403.75 150.54-6.52-6.42" vector-effect="non-scaling-stroke"/><path stroke="#ab748d" d="M397.23 144.12q-28.17-27.56-66.2-38.69" vector-effect="non-scaling-stroke"/><path stroke="#b47184" d="M266.32 54.07q-23.42-.88-46.32 3.14" vector-effect="non-scaling-stroke"/><path stroke="#a26986" d="M220 57.21q-20.16 3.3-39.23 10.51" vector-effect="non-scaling-stroke"/><path stroke="#936082" d="M180.77 67.72q-15.04 5.45-29.23 12.78" vector-effect="non-scaling-stroke"/><path stroke="#8e3f61" d="M328.95 65.46q.39 5.41-.05 10.66c-.51 6.15-.69 9.7-1.09 14.55-.15 1.84 1.97 4.84 2.35 6.83q.75 3.95.87 7.93" vector-effect="non-scaling-stroke"/><path stroke="#97779c" d="m331.03 105.43-11.78-2.89" vector-effect="non-scaling-stroke"/><path stroke="#82608d" d="M319.25 102.54q-41.24-8.69-81.25 4.25" vector-effect="non-scaling-stroke"/><path stroke="#724e81" d="m238 106.79-16.68 6.36" vector-effect="non-scaling-stroke"/><path stroke="#683b71" d="M221.32 113.15q-3.19-7.58-2.06-15.55.76-5.38.77-7.27.02-12.09-1.36-24.1c-.33-2.82.13-5.2.57-7.91a.87.86 2.8 0 1 .81-.72q.94-.05-.05-.39" vector-effect="non-scaling-stroke"/><path stroke="#dd3c31" d="M401.04 65.25q-.49.42.19.82c6.18 3.57 2.76 11.85 3 17.63q.02.38.32.91.54.96.7 2.88.99 12.6-.41 21.36" vector-effect="non-scaling-stroke"/><path stroke="#c1454b" d="M404.84 108.85q-26.35-22.7-57.82-36.43" vector-effect="non-scaling-stroke"/><path stroke="#c2bbd3" d="M397.23 144.12q-.9 4.61-.62 9.14.48 8.09.48 8.39-.03 5.09-.09 10.18c-.12 8.86.66 17.9.72 26.85a.4.22 2.1 0 1-.42.21q-.77-.04-.54.87a.32.28-4.6 0 1-.33.35q-.2-.01-.39-.11" vector-effect="non-scaling-stroke"/><path stroke="#dad5e4" d="M396.04 200q-26.87-46.55-76.08-68.25" vector-effect="non-scaling-stroke"/><path stroke="#b52f38" d="M429.88 421.06q-.54-.31-1.18-.21a.6.48-9.2 0 1-.66-.37q-.6-3.64.12-7.3a.37.04-79 0 0 .03-.37l-.2-.05a.71.43-86.5 0 1-.33-.63q-.19-8.19-1.28-16.3c-.65-4.77.08-10.16-.56-14.95q-1.22-9.03-.3-18.13 1.14-11.26 1.45-22.57 0-.26-.21-.66l-.18-.33a.92.63 53.4 0 1-.03-.86q1.07-1.5-.02-2.87a.36.33 43.6 0 0-.55-.01q-.41.58-.77-.45" vector-effect="non-scaling-stroke"/><path stroke="#c77983" d="M425.21 335c33-60.84 24.66-132.93-21.46-184.46" vector-effect="non-scaling-stroke"/><path stroke="#c33132" d="M409.54 444.75q-.78-2.04 1.21-3.75 9.67-8.33 19.13-19.94" vector-effect="non-scaling-stroke"/><path stroke="#cc2823" d="M429.88 421.06c31.64-38.49 50.7-86.56 51.76-136.54 1.44-68.05-25.07-129.76-76.39-175.06" vector-effect="non-scaling-stroke"/><path stroke="#be3338" d="m405.25 109.46-.41-.61" vector-effect="non-scaling-stroke"/><path stroke="#be8192" d="M425.21 335q-21.26 37.34-58.2 59.33" vector-effect="non-scaling-stroke"/><path stroke="#9c90b5" d="M184.91 136.39q-3.5 2.85-7.41 4.65" vector-effect="non-scaling-stroke"/><path stroke="#98779c" d="M177.5 141.04q-38.9 23.08-60.25 63" vector-effect="non-scaling-stroke"/><path stroke="#2f1767" d="M117.25 204.04q-.67-.3-1.37-.21a1.13.84-21.5 0 1-.85-.23q-3.16-3.01-2.8-6.87.85-8.92-.35-15.24a2 1.75-43.4 0 1 .09-.95q.8-2.19.3-3.57c-2.21-6.11-.06-10.23-.78-16.08-.85-6.86.23-14.75.51-21.72.35-8.83-.39-17.75-.78-26.67q-.08-1.69-2.22-2.04" vector-effect="non-scaling-stroke"/><path stroke="#5f4783" d="M221.32 113.15q-12.53 5.64-24.27 13.89c-.79.55-1.35 1.44-.19 1.98a1.17.83-41 0 0 .91-.09q2.3-1.24 3.77.49" vector-effect="non-scaling-stroke"/><path stroke="#aa99b9" d="m201.54 129.42-16.63 6.97" vector-effect="non-scaling-stroke"/><path stroke="#472a6f" d="M184.91 136.39q-8.98 3.01-16.29 9.11a1.25 1.1-59.1 0 1-.87.28c-4.52-.5-3.33-7.47-2.85-10.98 2.72-19.93-1.98-39.86 2.4-59.93a1.85 1.83-4.2 0 1 1.18-1.35q6.43-2.31 12.29-5.8" vector-effect="non-scaling-stroke"/><path stroke="#b4adc9" d="M242.25 119.96q-21.03 2.1-40.71 9.46" vector-effect="non-scaling-stroke"/><path stroke="#9f94b9" d="m319.25 102.54-1.31 1.17a1.05 1.04-22.3 0 0-.35.82c.34 6.09 1.69 11.8 1.93 17.97.08 1.88 1.2 7.92.44 9.25" vector-effect="non-scaling-stroke"/><path stroke="#c5bed5" d="M319.96 131.75q-37.31-15.51-77.71-11.79" vector-effect="non-scaling-stroke"/><path stroke="#7a6c9f" d="m242.25 119.96-3.07-4.18q-.43-.58-.48-.82-.94-4.03-.7-8.17" vector-effect="non-scaling-stroke"/><path stroke="#e8e5ee" d="M396.04 200c34.81 63.89 24.29 140.32-27.49 191.53q-1.17 1.15-1.54 2.8" vector-effect="non-scaling-stroke"/><path stroke="#d59ba3" d="m367.01 394.33-12.76 7.13" vector-effect="non-scaling-stroke"/><path stroke="#f5c0bd" d="M354.25 401.46q-53.09 23.84-109.75 9.25" vector-effect="non-scaling-stroke"/><path stroke="#f8d4d1" d="M244.5 410.71q-37.63-10.69-66.25-37.25" vector-effect="non-scaling-stroke"/><path stroke="#fbe7e6" d="M178.25 373.46c-66.78-63.94-66.68-165.54-1.28-230.54.6-.59.66-1.08.53-1.88" vector-effect="non-scaling-stroke"/><path stroke="#a4647f" d="M390.96 456.5q-17.79 8.46-36.46 14.71" vector-effect="non-scaling-stroke"/><path stroke="#9c3d56" d="M354.5 471.21q-.62-.85-1.07-.68a1.05 1.05 77.7 0 1-1.41-.91c-.88-11.74.48-20.98-1.3-33.26q-.92-6.34-.71-10.66.27-5.54 1.16-10.67.36-2.09.18-4.21-.3-3.59-2.85-2.86" vector-effect="non-scaling-stroke"/><path stroke="#cb5c60" d="m348.5 407.96 6.32-4.7a.56.55-35.2 0 0 .14-.76l-.71-1.04" vector-effect="non-scaling-stroke"/><path stroke="#8f6e97" d="M117.25 204.04c-32.16 62.4-20.7 136.31 28.5 186.17" vector-effect="non-scaling-stroke"/><path stroke="#341b69" d="M145.75 390.21c-2.71-1.43-4.6-3.45-7.03-5.06q-1.42-.94-2.61-1.66-1.95-1.18-2.63.99c-2.95 9.35-1.58 19.92-5.43 28.81q-2.14 4.97-2.22 11.24c-.04 3.42-1.78 6.37-1.79 9.97q-.02 7.42-.23 14.83c-.05 1.96.77 4.07.32 6.39a.71.68-69 0 0 .31.74c4.14 2.46 7.86 5.43 12.01 7.8q1.86 1.06 2.51 3.24" vector-effect="non-scaling-stroke"/><path stroke="#f4bbb8" d="M178.25 373.46q-1 .17-1.06.98-1.11 14.6-.16 31.51a1.73.55-86.2 0 0 .25 1.01q1.66 2.25 1.47 5.03a.83.78-10.6 0 1-.5.68q-1.22.5-.5 2.04" vector-effect="non-scaling-stroke"/><path stroke="#9d7b9e" d="M177.75 414.71q-17.58-10.19-32-24.5" vector-effect="non-scaling-stroke"/><path stroke="#ed958f" d="M244.5 410.71q-.59.38-1.05.29a.3.24 5 0 0-.37.24l2.81 24.03a.29.29 4.8 0 1-.37.31q-.91-.27-1.77.21" vector-effect="non-scaling-stroke"/><path stroke="#ac738b" d="M243.75 435.79q-23.42-2.07-45.25-10.75" vector-effect="non-scaling-stroke"/><path stroke="#99688a" d="M198.5 425.04q-10.75-4.41-20.75-10.33" vector-effect="non-scaling-stroke"/><path stroke="#bc6270" d="M348.5 407.96q-35.36 24.29-78.25 28.08" vector-effect="non-scaling-stroke"/><path stroke="#a95f77" d="M270.25 436.04q-13.27 1.09-26.5-.25" vector-effect="non-scaling-stroke"/><path stroke="#8578a7" d="M286.79 499.75q.06-.26-.03-.47a.85.49-5.5 0 0-.7-.32c-5.41-.05-6.15-3.45-6.23-8.23q-.07-4.58-.59-9.28" vector-effect="non-scaling-stroke"/><path stroke="#95698e" d="M354.5 471.21q-36.71 11.49-75.26 10.24" vector-effect="non-scaling-stroke"/><path stroke="#7e517e" d="m279.24 481.45-8.99-.49" vector-effect="non-scaling-stroke"/><path stroke="#7b406c" d="M270.25 480.96q2.05-.02 1-.95a1.3 1.05 23.4 0 1-.42-.8q-.67-11.07-1.64-22.13c-.29-3.27.1-6.83-.12-10.33-.16-2.53-.37-8.65 2.15-9.97q.53-.27.02-.43l-.99-.31" vector-effect="non-scaling-stroke"/><path stroke="#553372" d="M198.5 425.04q-.94 1.55-2.1 1.87a2.28 2.27-6.7 0 0-1.65 2.07c-.13 2.45.11 9.39-1.2 11.14a1.59 1.11-35 0 0-.32.88q.27 9.22-1.22 18.31a.63.6-68.4 0 0 .25.62q.5.36-.51.53" vector-effect="non-scaling-stroke"/><path stroke="#483178" d="M191.75 460.46q-20.75-9.72-39.14-23.4a.86.77 48.3 0 0-.86-.1c-2.57 1.27-1.45 4.84-1.47 7.2a.33.22-89.6 0 0 .22.34l.25-.01a.59.45-82.3 0 1 .42.73q-.55 2.12-.43 2.78 1.73 9.4 1.06 12.26-1.82 7.79.94 15.33" vector-effect="non-scaling-stroke"/><path stroke="#6b4e85" d="M270.25 480.96q-40.52-2.94-77.5-20.04" vector-effect="non-scaling-stroke"/><path stroke="#5b3c79" d="M192.75 460.92q-.35-.31-1-.46" vector-effect="non-scaling-stroke"/><path stroke="#5e4d8b" d="M192.75 460.92q-2.34 4.79-1.44 10.02c.83 4.83.32 10.07 1.54 14.31q1.16 4.05 3.15 7.79" vector-effect="non-scaling-stroke"/><path stroke="#9387b1" d="m723.19 269.77 14.64 34.2a.89.52 72.8 0 0 .61.56l35.56-.02a.57.41 74.6 0 0 .29-.78L681.65 90.15a1.46 1.11 74.9 0 0-1.15-.89l-10.31.06a1.05.47-70.6 0 0-.66.69L576.7 303.94a.4.36-76.9 0 0 .3.56h35.25a.85.71-76.6 0 0 .7-.52l14.52-34.03a1.13 1.11-78.5 0 1 1.03-.7h94a.85.7 76.3 0 1 .69.52m119.56-146.23 101-.09a.5.45 0 0 0 .5-.45V93.5a.56.5 0 0 0-.56-.5H808.75a.5.5 0 0 0-.5.5v210.25a.75.5 90 0 0 .5.75h33a.5.5 0 0 0 .5-.5v-86.25a.5.5 0 0 1 .5-.5h101a.5.5 0 0 0 .5-.5V187a.5.5 0 0 0-.5-.5h-101a.5.5 0 0 1-.5-.5v-62a.5.46 0 0 1 .5-.46m205.68 180.67c54.38-.58 101.68-32.42 109.57-88.73 10.21-72.93-40.82-122.22-111.26-122.43q-34.18-.1-68.46 0a.53.45 0 0 0-.53.45V304a.53.46.6 0 0 .52.46q35.09.13 70.16-.25m-463.18 81.54h16a1 .69-7.8 0 1 .85.43l2.5 5.68a1.06.59-5.7 0 0 .9.39h5.25a.37.34-10.4 0 0 .36-.47q-8.04-18.76-16.22-37.38c-.77-1.75-2.29-2.18-3.18-.16q-3.78 8.53-16.21 37.38a.46.33-75.3 0 0 .24.62l5.7-.03a.99.58-72.5 0 0 .68-.62l2.38-5.31a.9.78-76.1 0 1 .75-.53m351.11.42 2.61 5.6a.78.44 71.4 0 0 .53.48l5.5.01a.53.51 77.7 0 0 .45-.74l-15.97-36.76q-1.77-4.09-3.53-.04l-15.98 36.73a.57.4-75.1 0 0 .28.77l5.76-.16a1.05.35-68.5 0 0 .6-.72l2.28-5.17a1.02.68 7.6 0 1 .86-.42h15.75a1.03.7-8.2 0 1 .86.42m23.27-18.68q-.01-1.48.95-.38 10.39 11.92 20.61 23.45 1.17 1.32 2.27 2.14 1.8 1.35 1.8-.95l.02-37.32a.67.53-90 0 0-.53-.67l-5.25-.01a.5.45 90 0 0-.45.5l.16 23.51q.01 2.08-1.43.45l-22.03-24.95q-2.22-2.52-2.23.79l-.01 37.45a.75.49-90 0 0 .49.75l5.25.01a.76.47-90 0 0 .47-.76l-.09-24.01m104.04 19.09 2.23 5a1.12.84 74.6 0 0 .86.67h5.24a.52.52 78.8 0 0 .48-.72q-7.51-17.57-15.04-35.11-.84-1.96-1.45-2.7-1.66-2.03-2.69.35l-16.27 37.45a.53.34-73.9 0 0 .21.71l5.58-.08a1.02.53-72 0 0 .67-.66l2.3-5.22a.85.74-76.8 0 1 .71-.51l16.57.04a1.08.29 67.6 0 1 .6.78m-434.71-26.31q9.38-4.69 17.45 3.97a.69.45 48.1 0 0 .78.21l3.51-3a.8.45 54 0 0-.1-.87c-5.24-7.7-16.53-9.32-24.02-5.74-11.94 5.71-15.7 21.1-6.92 30.99 8.45 9.52 24.13 9.41 32.01-.94 2.32-3.05 1.69-8.89 1.47-12.55a.64.62-1.4 0 0-.64-.59h-16.75a.59.43-.5 0 0-.59.44l.11 4.55a.75.49.8 0 0 .73.49l10.24.34a.74.69-3.2 0 1 .7.58c1.37 8.39-11.17 10.07-16.61 8.25-11.09-3.72-12.29-20.67-1.37-26.13m75.29 6.98q0-1.23.79-.32 11.1 12.8 22.35 25.44c.44.5 1.3.72 1.9.53a.76.63 82.9 0 0 .45-.7c-.11-12.51-.33-25.28.28-37.75a.71.54-87.7 0 0-.51-.73l-5.25-.21a.73.47-89.3 0 0-.49.74l-.09 24.43q0 1.08-.69.28-10.8-12.51-22.04-25.16-.97-1.08-2.21-.69a.68.64 81.9 0 0-.45.64l-.29 36.07q-.02 2.41 1.92 2.42l3.82.01a.51.5 0 0 0 .51-.5v-24.5m35.27 4.99c-.71 19.62 25 28.27 36.24 12.43a.71.39-53.9 0 0 .1-.78l-3.92-3.08a.66.48-53.1 0 0-.79.24c-11.7 16.03-33.7-2.11-22.33-16.97 5.66-7.4 16.97-7.09 22.35.77a.76.74 53.2 0 0 1.1.17l3.42-2.84a.67.6 53.5 0 0 .08-.86c-10.72-15.45-35.57-8.01-36.25 10.92m272.97 21.03-1.38 2.77a.55.35-68.4 0 0 .14.71l1.82.4q.65.15.9.33c4.31 3.21-1.91 3.52-3.75 3.06a.82.72 24.3 0 0-.81.25c-2.9 3.8 5.98 3.23 8.07 1.22 4.91-4.73-3.84-7-2.13-8.83a1.54 1.33 16.9 0 1 .96-.43q9.34-.62 14.87-8.06a.79.52-53.1 0 0 .06-.93l-3.81-2.94a.68.47-52.1 0 0-.79.25c-5.91 7.73-17.31 8.44-22.83.11-10.19-15.38 11.24-31.83 22.86-16.27a.65.44 52.5 0 0 .75.25l3.92-3.07a.79.55 51 0 0-.07-.98c-13.32-15.89-39.37-6.28-35.99 15.08q2.12 13.39 16.92 16.52a.41.39 18.8 0 1 .29.56m88.95-22.46q4.23 3.2 10.32 5.86c12.25 5.34-1.36 17.29-11.64 4.92a.54.45 50.9 0 0-.67-.13l-3.65 2.84a.68.55 52.9 0 0-.03.86q7.35 9.9 18.78 6.91c6.58-1.73 10.46-8.52 7.23-14.9-2.21-4.38-8.56-6.69-14.36-9.57-9.78-4.86 2.96-14.33 10.2-4.82a.58.55 52.8 0 0 .79.13l3.68-2.81a.63.41 52 0 0-.07-.75q-6.77-8.48-16.77-5.49c-7.73 2.31-10.56 11.86-3.81 16.95m-309.94-2.06v-9a.5.5 0 0 1 .5-.5h17.75a.69.51 0 0 0 .69-.51l.04-4.47a.79.53.3 0 0-.79-.54l-23.94.02a.5.5 0 0 0-.5.5v37.5a.5.5 0 0 0 .5.5h25a.5.5 0 0 0 .5-.5v-4.5a.5.5 0 0 0-.5-.5h-18.5a.75.5 0 0 1-.75-.5v-11.5a.75.4 0 0 1 .75-.4l12.75.12a.75.47 0 0 0 .75-.47v-4.25a.5.5 0 0 0-.5-.5H792a.5.5 0 0 1-.5-.5m-122.12-.24.09-8.76a.53.51.6 0 1 .53-.5h18a.5.5 0 0 0 .5-.5v-4.5a.5.5 0 0 0-.5-.5h-24.25a.5.5 0 0 0-.5.5v37.5a.5.5 0 0 0 .5.5h25a.5.5 0 0 0 .5-.5v-4.5a.75.5 0 0 0-.75-.5l-18.69-.01a.44.42 0 0 1-.44-.42l-.14-10.82a1.02.99-.3 0 1 1.02-1H683a.74.49-.4 0 0 .74-.5l-.03-4.44a.72.32.7 0 0-.71-.33l-13.32-.04a.67.31-89.3 0 1-.3-.68m177.37 7.77 14 .11a.75.4 0 0 0 .75-.4l.01-4.75a.76.49 0 0 0-.76-.49h-14a.5.5 0 0 1-.5-.5v-10.5a.5.5 0 0 1 .5-.5h17.5a.5.5 0 0 0 .5-.5v-4.5a.5.5 0 0 0-.5-.5H840.5a.5.41-90 0 0-.41.5l-.11 37.25a.75.52-90 0 0 .52.75l5.25.01a.76.5 90 0 0 .5-.76v-14.75a.5.47 0 0 1 .5-.47m32.5 1 6.25.21a1.42.98 66.7 0 1 .93.58l9.63 13.12a1.22.1 53.8 0 0 .74.86l6.45.17q.62.01.14-.63l-10.77-14.69a.5.42-31.1 0 1 .23-.67c11.12-5.68 8.25-20.85-4.18-22.39q-3.53-.43-15.55.04a.62.57 89 0 0-.55.62l-.05 37a.74.48-89.5 0 0 .48.75h5.25a.75.5-90 0 0 .5-.75v-13.75a.49.47.6 0 1 .5-.47m207.51-23.01a.52.52 0 0 0-.52-.52h-5.22a.52.52 0 0 0-.52.52v37.46a.52.52 0 0 0 .52.52h5.22a.52.52 0 0 0 .52-.52v-37.46m53.31 32.45a1.08.96 0 0 1-1.08-.96L1139 375a.5.5 0 0 1 .5-.5h13.25a.75.5 0 0 0 .75-.5v-4.25a.5.5 0 0 0-.5-.5h-13.5a.5.5 0 0 1-.5-.5v-9a.75.5 0 0 1 .75-.5h18a.5.5 0 0 0 .5-.5v-4.5a.5.5 0 0 0-.5-.5h-24.5a.5.5 0 0 0-.5.5v37.5a.5.5 0 0 0 .5.5l24.5-.01a1.27 1.12-2.3 0 0 1.28-1.22l-.33-3.76a.56.44 87.3 0 0-.45-.52l-18.18-.02m-410.99 24.26c-1.32 1.36-2.67 3.44-3.83 4.89a.36.36-64.1 0 0 .2.58c5.23 1.3 6.76-2.04 9.7-5.4q.48-.55-.15-.55l-5-.01a1.5.86-57.9 0 0-.92.49m307.03 24.26-.08 21.76a.75.47-90 0 0 .47.75h5.25a.75.5-90 0 0 .5-.75v-38a.65.65-82.5 0 0-.48-.63q-1.23-.36-2.11.81-7.72 10.17-15.34 20.43a.38.37-45.5 0 1-.6.01q-7.73-10.31-15.47-20.6-.67-.89-2-.61a.64.6-6.6 0 0-.5.59v38.25a.5.5 0 0 0 .5.5h4.74a.85.75.4 0 0 .86-.75l-.07-22.5q-.01-1.12.68-.23c2.43 3.18 8.16 12.2 11.32 13.76a1.16 1.13-57.9 0 0 1.42-.34l9.84-12.89q1.08-1.41 1.07.44m58.14-2.74q0-.94.67-.18l22.36 25.39q2.47 2.81 2.47-.7v-37.26a.75.5 90 0 0-.5-.75h-5a.5.44-90 0 0-.44.5l-.13 24.26q-.01 1.43-.98.32-10.94-12.59-22-25.03-.94-1.05-2.12-.55a.82.79 79.3 0 0-.49.75l-.08 37.75a.75.49-90 0 0 .49.75h5.25a.75.5-90 0 0 .5-.75v-24.5m-201.87 5.94a20.24 19.92.2 0 0-20.17-19.99 20.24 19.92.2 0 0-20.31 19.85 20.24 19.92.2 0 0 20.17 19.99 20.24 19.92.2 0 0 20.31-19.85m-315.02 19.08c7.4.16 16.38.79 22.45-2.11 8.38-4.02 12.27-14.59 9.39-23.22-4.67-14.04-19.79-13.9-31.71-12.95a.52.51-1.8 0 0-.49.51v37.5a.37.27 1 0 0 .36.27m48.4-17.77 11.23-.1a1.63.56-8.8 0 1 .94.17q.6.36 1.25.11a1.03.91 80.5 0 0 .58-.93l-.01-4a.75.5 0 0 0-.75-.5h-13a.63.5 0 0 1-.63-.5l-.01-8.93a.89.54 0 0 1 .89-.54l17.5.09a.75.38 0 0 0 .75-.38v-4.74a.75.5 0 0 0-.75-.5h-24a.7.57 0 0 0-.7.57l.02 37.43a.55.44-89.5 0 0 .43.55l25 .16a.74.47.5 0 0 .75-.47l.01-4.75a.75.44-.6 0 0-.76-.44l-18.25.14a.7.45-.4 0 1-.7-.44l-.27-11.5a.49.49 0 0 1 .48-.5m62.66 17.67c23.74-2.82 23.52-36.47-1.68-38.16q-6.61-.44-13.25-.22a.77.71-1.3 0 0-.74.71V457a.53.46.6 0 0 .52.46q12.81.24 15.15-.04m33.33-17.64 13 .25a.73.54 1 0 0 .75-.53V435a.75.5 0 0 0-.75-.5h-13a.53.51-.6 0 1-.53-.5l-.1-8.94a.52.45 89.4 0 1 .44-.52l17.94-.05a.75.5 0 0 0 .75-.5v-4.49a.55.5 90 0 0-.5-.55H715.5a.64.55 0 0 0-.64.55l.04 37.5a.79.58 0 0 0 .79.58l24.31.17a1.01 1 0 0 0 1.01-1l-.01-4.25a.75.46 0 0 0-.75-.46l-18.25.15a.77.44 0 0 1-.77-.44l-.07-11.56a.58.41.6 0 1 .59-.41m42.56 5.41-10.49-25.51a.86.33 70.9 0 0-.5-.59l-6.07-.07a.56.43 75.9 0 0-.33.76l16.2 37.31q1.55 3.56 2.99.24l16.43-37.81a.38.34-77.3 0 0-.29-.52h-6a.92.59-74.3 0 0-.66.58l-10.64 25.61q-.33.78-.64 0m31.94 6.31v-11a.54.51 89.5 0 1 .5-.54l13-.07a.77.67.3 0 0 .76-.65l.12-4.3a.63.43.4 0 0-.63-.44h-13.25a.57.44 0 0 1-.57-.44l.05-9.06a.76.52.9 0 1 .77-.51l17.5.22a.74.46.5 0 0 .75-.46l.01-4.76a.76.49 0 0 0-.76-.49h-24a.5.5 0 0 0-.5.5V457a.66.5 90 0 0 .5.66l24.75.01a.75.68 0 0 0 .75-.68l.01-4.5a.76.49 0 0 0-.76-.49h-18.5a.5.5 0 0 1-.5-.5m51 6.13a1.01.88 0 0 0 1.01-.88l-.01-4a.54.53-88.3 0 0-.5-.54q-8.13-.53-16.25.07a.93.79-2.6 0 1-1-.78v-31.75a.75.5 90 0 0-.5-.75h-5a.5.5 0 0 0-.5.5V457a.66.5 90 0 0 .5.66l22.25-.03m60.82-14.81c7.64.08 14.17.52 18.22-4.91 3.81-5.12 2.85-12.89-2.63-16.49-5.1-3.35-15.31-2.61-21.58-2.29a.62.6 89 0 0-.58.62V457a.75.5 90 0 0 .5.75h4.99a.81.54-90 0 0 .54-.81l-.02-13.69a.55.43.6 0 1 .56-.43m34.99-.01c3.89-.06 8.33.22 11.67-.67 7.96-2.13 11.36-10.92 6.78-17.66-5.07-7.45-18.08-5.56-24.43-5.35a.62.6 89 0 0-.58.62V457a.7.51-89.6 0 0 .5.7l4.99.12a.57.5-89.5 0 0 .51-.57v-14a.56.44 0 0 1 .56-.44m34.42 8.69-.07-11.31a.36.34 90 0 1 .34-.36l13.25.06a.71.7-87.4 0 0 .71-.66l.29-4.24a.73.46 1.3 0 0-.75-.49H978a.68.6 90 0 1-.6-.68v-8.39a.65.61 89.6 0 1 .6-.65l17.75-.13a.76.39-.6 0 0 .75-.4l.01-4.76a.76.49 0 0 0-.76-.49H972a.75.67-90 0 0-.67.75l-.06 37.25a.64.48-90 0 0 .48.64l24.75-.01a.87.74 90 0 0 .74-.87l.01-4.26a.74.47-.5 0 0-.75-.47l-18.5.09a.63.51 89 0 1-.52-.62m83.02-27.01 17.75.22a.67.61 6 0 0 .64-.47q.53-2.33-.07-4.74a.65.57 82.3 0 0-.57-.5h-24a.52.5 0 0 0-.52.5l-.03 37.5a.62.56-89.5 0 0 .55.62l24.75.17a.72.52-.6 0 0 .74-.54l-.27-4.75a.73.53-1.2 0 0-.72-.5h-18.25a.73.5 0 0 1-.73-.5l-.06-11.25a.54.5 0 0 1 .54-.5h13.25a.76.51.4 0 0 .76-.5l.12-4.31a.63.43.4 0 0-.63-.44h-13.5a.54.5.5 0 1-.54-.51l.25-9.05a.54.46.5 0 1 .54-.45m79.48.76-.06 31.5a.6.59-83.2 0 0 .45.58q2.53.59 5.36.12a.71.64 85.3 0 0 .54-.7l-.35-31.5a.68.39 89.7 0 1 .39-.69l12.19.2a.74.51.5 0 0 .75-.51v-4.75a.75.5 0 0 0-.75-.5h-30.75a.61.6-87.4 0 0-.6.56l-.32 3.43q-.2 2.17 2.15 1.88 5.25-.64 10.47-.11a.58.48 3.2 0 1 .53.49" vector-effect="non-scaling-stroke"/><path stroke="#9387b1" d="M640.51 239.51a.31.31 10.8 0 0 .29.43l69.16.12a.31.31 79.1 0 0 .29-.43l-34.43-86.59a.31.31-45.6 0 0-.58 0l-34.73 86.47m465.64 9.38q13.79-15.61 17-36.33c7.9-50.96-25.08-87.97-75.6-88.64q-21.21-.29-35.28-.11a.52.44 0 0 0-.52.44V273.5a.49.47.6 0 0 .48.47c34.06.26 68.8 3.35 93.92-25.08M587.08 380.06a.32.32-79.1 0 0 .3.44h11.74a.32.32 79.1 0 0 .3-.44l-5.87-14.72a.32.32-45.2 0 0-.6 0l-5.87 14.72m334.47-.01a.34.34 10.9 0 0 .31.46l11.68-.02a.34.34-10.7 0 0 .31-.46l-5.86-14.56a.34.34-45.1 0 0-.63 0l-5.81 14.58m127.06-.11a.32.32 11 0 0 .3.44l11.58.04a.32.32-10.7 0 0 .3-.44l-5.74-14.55a.32.32 44.6 0 0-.59 0l-5.85 14.51m-158.07-19.75q-1.02-.92-3.04-.92l-8.25-.01a.49.49.6 0 0-.5.49V371a.66.55-87.6 0 0 .5.65q5.55.56 10.96-.58a1.62.66-58.1 0 0 .79-.57q4.91-5.47-.46-10.31m-18.082 92.377a14.21 13.81 88.8 0 0 13.509-14.496 14.21 13.81 88.8 0 0-14.105-13.918 14.21 13.81 88.8 0 0-13.509 14.496 14.21 13.81 88.8 0 0 14.105 13.918M583.33 451.19a.89.76 2.4 0 0 .83.77c8.64.63 17.96-1.38 19.31-11.46 1.68-12.61-8.85-16.81-19.55-15.64a.66.63 87.6 0 0-.56.64l-.03 25.69m115.74-15.67c-1.46-9.96-11.32-11.27-19.61-10.73a.57.45-1.9 0 0-.54.46l.35 26.25a.58.47 2.1 0 0 .53.47c11.23.79 21.22-3.19 19.27-16.45m220.23-9.84a5.4 4.24 56.7 0 0-2.8-.94l-8.25.01a.5.5 0 0 0-.5.5v11.5a.56.46 1.3 0 0 .54.46q7 .39 9.39-.29c5.32-1.5 5.99-8.22 1.62-11.24m35.42.37c-2.82-2.06-8.27-1.36-11.68-1.29a.52.48-1.1 0 0-.51.49l.18 11.5a.58.48 1.4 0 0 .55.47c6.55.31 14.87.73 13.66-7.51q-.33-2.29-2.2-3.66" vector-effect="non-scaling-stroke"/></g><path fill="#fff" d="M0 0h1193v540H0zm260.25 35.29q-59.7 7.24-107.54 43.22a1.59 1.05 87.7 0 0-.48.8q-.18.67-.69 1.19-22.93 12.63-42.54 29.96C-2.02 209.41 12.05 389.3 138.96 467.5l13.78 8.09q20.65 11.11 43.26 17.45 44.65 12.81 90.79 6.71 56.73-7.37 102.74-41.02.32-.22.61-.75l.82-1.48 18.58-11.75q17.36-11.04 32.72-25.99c105.95-103.05 85.97-277.72-41.22-353.51q-26.06-15.77-55.54-23.54-41.95-11.55-85.25-6.42m462.94 234.48 14.64 34.2a.89.52 72.8 0 0 .61.56l35.56-.02a.57.41 74.6 0 0 .29-.78L681.65 90.15a1.46 1.11 74.9 0 0-1.15-.89l-10.31.06a1.05.47-70.6 0 0-.66.69L576.7 303.94a.4.36-76.9 0 0 .3.56h35.25a.85.71-76.6 0 0 .7-.52l14.52-34.03a1.13 1.11-78.5 0 1 1.03-.7h94a.85.7 76.3 0 1 .69.52m119.56-146.23 101-.09a.5.45 0 0 0 .5-.45V93.5a.56.5 0 0 0-.56-.5H808.75a.5.5 0 0 0-.5.5v210.25a.75.5 90 0 0 .5.75h33a.5.5 0 0 0 .5-.5v-86.25a.5.5 0 0 1 .5-.5h101a.5.5 0 0 0 .5-.5V187a.5.5 0 0 0-.5-.5h-101a.5.5 0 0 1-.5-.5v-62a.5.46 0 0 1 .5-.46m205.68 180.67c54.38-.58 101.68-32.42 109.57-88.73 10.21-72.93-40.82-122.22-111.26-122.43q-34.18-.1-68.46 0a.53.45 0 0 0-.53.45V304a.53.46.6 0 0 .52.46q35.09.13 70.16-.25m-463.18 81.54h16a1 .69-7.8 0 1 .85.43l2.5 5.68a1.06.59-5.7 0 0 .9.39h5.25a.37.34-10.4 0 0 .36-.47q-8.04-18.76-16.22-37.38c-.77-1.75-2.29-2.18-3.18-.16q-3.78 8.53-16.21 37.38a.46.33-75.3 0 0 .24.62l5.7-.03a.99.58-72.5 0 0 .68-.62l2.38-5.31a.9.78-76.1 0 1 .75-.53m351.11.42 2.61 5.6a.78.44 71.4 0 0 .53.48l5.5.01a.53.51 77.7 0 0 .45-.74l-15.97-36.76q-1.77-4.09-3.53-.04l-15.98 36.73a.57.4-75.1 0 0 .28.77l5.76-.16a1.05.35-68.5 0 0 .6-.72l2.28-5.17a1.02.68 7.6 0 1 .86-.42h15.75a1.03.7-8.2 0 1 .86.42m23.27-18.68q-.01-1.48.95-.38 10.39 11.92 20.61 23.45 1.17 1.32 2.27 2.14 1.8 1.35 1.8-.95l.02-37.32a.67.53-90 0 0-.53-.67l-5.25-.01a.5.45 90 0 0-.45.5l.16 23.51q.01 2.08-1.43.45l-22.03-24.95q-2.22-2.52-2.23.79l-.01 37.45a.75.49-90 0 0 .49.75l5.25.01a.76.47-90 0 0 .47-.76zm104.04 19.09 2.23 5a1.12.84 74.6 0 0 .86.67h5.24a.52.52 78.8 0 0 .48-.72q-7.51-17.57-15.04-35.11-.84-1.96-1.45-2.7-1.66-2.03-2.69.35l-16.27 37.45a.53.34-73.9 0 0 .21.71l5.58-.08a1.02.53-72 0 0 .67-.66l2.3-5.22a.85.74-76.8 0 1 .71-.51l16.57.04a1.08.29 67.6 0 1 .6.78m-434.71-26.31q9.38-4.69 17.45 3.97a.69.45 48.1 0 0 .78.21l3.51-3a.8.45 54 0 0-.1-.87c-5.24-7.7-16.53-9.32-24.02-5.74-11.94 5.71-15.7 21.1-6.92 30.99 8.45 9.52 24.13 9.41 32.01-.94 2.32-3.05 1.69-8.89 1.47-12.55a.64.62-1.4 0 0-.64-.59h-16.75a.59.43-.5 0 0-.59.44l.11 4.55a.75.49.8 0 0 .73.49l10.24.34a.74.69-3.2 0 1 .7.58c1.37 8.39-11.17 10.07-16.61 8.25-11.09-3.72-12.29-20.67-1.37-26.13m75.29 6.98q0-1.23.79-.32 11.1 12.8 22.35 25.44c.44.5 1.3.72 1.9.53a.76.63 82.9 0 0 .45-.7c-.11-12.51-.33-25.28.28-37.75a.71.54-87.7 0 0-.51-.73l-5.25-.21a.73.47-89.3 0 0-.49.74l-.09 24.43q0 1.08-.69.28-10.8-12.51-22.04-25.16-.97-1.08-2.21-.69a.68.64 81.9 0 0-.45.64l-.29 36.07q-.02 2.41 1.92 2.42l3.82.01a.51.5 0 0 0 .51-.5zm35.27 4.99c-.71 19.62 25 28.27 36.24 12.43a.71.39-53.9 0 0 .1-.78l-3.92-3.08a.66.48-53.1 0 0-.79.24c-11.7 16.03-33.7-2.11-22.33-16.97 5.66-7.4 16.97-7.09 22.35.77a.76.74 53.2 0 0 1.1.17l3.42-2.84a.67.6 53.5 0 0 .08-.86c-10.72-15.45-35.57-8.01-36.25 10.92m272.97 21.03-1.38 2.77a.55.35-68.4 0 0 .14.71l1.82.4q.65.15.9.33c4.31 3.21-1.91 3.52-3.75 3.06a.82.72 24.3 0 0-.81.25c-2.9 3.8 5.98 3.23 8.07 1.22 4.91-4.73-3.84-7-2.13-8.83a1.54 1.33 16.9 0 1 .96-.43q9.34-.62 14.87-8.06a.79.52-53.1 0 0 .06-.93l-3.81-2.94a.68.47-52.1 0 0-.79.25c-5.91 7.73-17.31 8.44-22.83.11-10.19-15.38 11.24-31.83 22.86-16.27a.65.44 52.5 0 0 .75.25l3.92-3.07a.79.55 51 0 0-.07-.98c-13.32-15.89-39.37-6.28-35.99 15.08q2.12 13.39 16.92 16.52a.41.39 18.8 0 1 .29.56m88.95-22.46q4.23 3.2 10.32 5.86c12.25 5.34-1.36 17.29-11.64 4.92a.54.45 50.9 0 0-.67-.13l-3.65 2.84a.68.55 52.9 0 0-.03.86q7.35 9.9 18.78 6.91c6.58-1.73 10.46-8.52 7.23-14.9-2.21-4.38-8.56-6.69-14.36-9.57-9.78-4.86 2.96-14.33 10.2-4.82a.58.55 52.8 0 0 .79.13l3.68-2.81a.63.41 52 0 0-.07-.75q-6.77-8.48-16.77-5.49c-7.73 2.31-10.56 11.86-3.81 16.95m-309.94-2.06v-9a.5.5 0 0 1 .5-.5h17.75a.69.51 0 0 0 .69-.51l.04-4.47a.79.53.3 0 0-.79-.54l-23.94.02a.5.5 0 0 0-.5.5v37.5a.5.5 0 0 0 .5.5h25a.5.5 0 0 0 .5-.5v-4.5a.5.5 0 0 0-.5-.5h-18.5a.75.5 0 0 1-.75-.5v-11.5a.75.4 0 0 1 .75-.4l12.75.12a.75.47 0 0 0 .75-.47v-4.25a.5.5 0 0 0-.5-.5H792a.5.5 0 0 1-.5-.5m-122.12-.24.09-8.76a.53.51.6 0 1 .53-.5h18a.5.5 0 0 0 .5-.5v-4.5a.5.5 0 0 0-.5-.5h-24.25a.5.5 0 0 0-.5.5v37.5a.5.5 0 0 0 .5.5h25a.5.5 0 0 0 .5-.5v-4.5a.75.5 0 0 0-.75-.5l-18.69-.01a.44.42 0 0 1-.44-.42l-.14-10.82a1.02.99-.3 0 1 1.02-1H683a.74.49-.4 0 0 .74-.5l-.03-4.44a.72.32.7 0 0-.71-.33l-13.32-.04a.67.31-89.3 0 1-.3-.68m177.37 7.77 14 .11a.75.4 0 0 0 .75-.4l.01-4.75a.76.49 0 0 0-.76-.49h-14a.5.5 0 0 1-.5-.5v-10.5a.5.5 0 0 1 .5-.5h17.5a.5.5 0 0 0 .5-.5v-4.5a.5.5 0 0 0-.5-.5H840.5a.5.41-90 0 0-.41.5l-.11 37.25a.75.52-90 0 0 .52.75l5.25.01a.76.5 90 0 0 .5-.76v-14.75a.5.47 0 0 1 .5-.47m32.5 1 6.25.21a1.42.98 66.7 0 1 .93.58l9.63 13.12a1.22.1 53.8 0 0 .74.86l6.45.17q.62.01.14-.63l-10.77-14.69a.5.42-31.1 0 1 .23-.67c11.12-5.68 8.25-20.85-4.18-22.39q-3.53-.43-15.55.04a.62.57 89 0 0-.55.62l-.05 37a.74.48-89.5 0 0 .48.75h5.25a.75.5-90 0 0 .5-.75v-13.75a.49.47.6 0 1 .5-.47m207.51-23.01a.52.52 0 0 0-.52-.52h-5.22a.52.52 0 0 0-.52.52v37.46a.52.52 0 0 0 .52.52h5.22a.52.52 0 0 0 .52-.52zm53.31 32.45a1.08.96 0 0 1-1.08-.96L1139 375a.5.5 0 0 1 .5-.5h13.25a.75.5 0 0 0 .75-.5v-4.25a.5.5 0 0 0-.5-.5h-13.5a.5.5 0 0 1-.5-.5v-9a.75.5 0 0 1 .75-.5h18a.5.5 0 0 0 .5-.5v-4.5a.5.5 0 0 0-.5-.5h-24.5a.5.5 0 0 0-.5.5v37.5a.5.5 0 0 0 .5.5l24.5-.01a1.27 1.12-2.3 0 0 1.28-1.22l-.33-3.76a.56.44 87.3 0 0-.45-.52zm-410.99 24.26c-1.32 1.36-2.67 3.44-3.83 4.89a.36.36-64.1 0 0 .2.58c5.23 1.3 6.76-2.04 9.7-5.4q.48-.55-.15-.55l-5-.01a1.5.86-57.9 0 0-.92.49m307.03 24.26-.08 21.76a.75.47-90 0 0 .47.75h5.25a.75.5-90 0 0 .5-.75v-38a.65.65-82.5 0 0-.48-.63q-1.23-.36-2.11.81-7.72 10.17-15.34 20.43a.38.37-45.5 0 1-.6.01q-7.73-10.31-15.47-20.6-.67-.89-2-.61a.64.6-6.6 0 0-.5.59v38.25a.5.5 0 0 0 .5.5h4.74a.85.75.4 0 0 .86-.75l-.07-22.5q-.01-1.12.68-.23c2.43 3.18 8.16 12.2 11.32 13.76a1.16 1.13-57.9 0 0 1.42-.34l9.84-12.89q1.08-1.41 1.07.44m58.14-2.74q0-.94.67-.18l22.36 25.39q2.47 2.81 2.47-.7v-37.26a.75.5 90 0 0-.5-.75h-5a.5.44-90 0 0-.44.5l-.13 24.26q-.01 1.43-.98.32-10.94-12.59-22-25.03-.94-1.05-2.12-.55a.82.79 79.3 0 0-.49.75l-.08 37.75a.75.49-90 0 0 .49.75h5.25a.75.5-90 0 0 .5-.75zm-201.87 5.94a20.24 19.92.2 0 0-20.17-19.99 20.24 19.92.2 0 0-20.31 19.85 20.24 19.92.2 0 0 20.17 19.99 20.24 19.92.2 0 0 20.31-19.85m-315.02 19.08c7.4.16 16.38.79 22.45-2.11 8.38-4.02 12.27-14.59 9.39-23.22-4.67-14.04-19.79-13.9-31.71-12.95a.52.51-1.8 0 0-.49.51v37.5a.37.27 1 0 0 .36.27m48.4-17.77 11.23-.1a1.63.56-8.8 0 1 .94.17q.6.36 1.25.11a1.03.91 80.5 0 0 .58-.93l-.01-4a.75.5 0 0 0-.75-.5h-13a.63.5 0 0 1-.63-.5l-.01-8.93a.89.54 0 0 1 .89-.54l17.5.09a.75.38 0 0 0 .75-.38v-4.74a.75.5 0 0 0-.75-.5h-24a.7.57 0 0 0-.7.57l.02 37.43a.55.44-89.5 0 0 .43.55l25 .16a.74.47.5 0 0 .75-.47l.01-4.75a.75.44-.6 0 0-.76-.44l-18.25.14a.7.45-.4 0 1-.7-.44l-.27-11.5a.49.49 0 0 1 .48-.5m62.66 17.67c23.74-2.82 23.52-36.47-1.68-38.16q-6.61-.44-13.25-.22a.77.71-1.3 0 0-.74.71V457a.53.46.6 0 0 .52.46q12.81.24 15.15-.04m33.33-17.64 13 .25a.73.54 1 0 0 .75-.53V435a.75.5 0 0 0-.75-.5h-13a.53.51-.6 0 1-.53-.5l-.1-8.94a.52.45 89.4 0 1 .44-.52l17.94-.05a.75.5 0 0 0 .75-.5v-4.49a.55.5 90 0 0-.5-.55H715.5a.64.55 0 0 0-.64.55l.04 37.5a.79.58 0 0 0 .79.58l24.31.17a1.01 1 0 0 0 1.01-1l-.01-4.25a.75.46 0 0 0-.75-.46l-18.25.15a.77.44 0 0 1-.77-.44l-.07-11.56a.58.41.6 0 1 .59-.41m42.56 5.41-10.49-25.51a.86.33 70.9 0 0-.5-.59l-6.07-.07a.56.43 75.9 0 0-.33.76l16.2 37.31q1.55 3.56 2.99.24l16.43-37.81a.38.34-77.3 0 0-.29-.52h-6a.92.59-74.3 0 0-.66.58l-10.64 25.61q-.33.78-.64 0m31.94 6.31v-11a.54.51 89.5 0 1 .5-.54l13-.07a.77.67.3 0 0 .76-.65l.12-4.3a.63.43.4 0 0-.63-.44h-13.25a.57.44 0 0 1-.57-.44l.05-9.06a.76.52.9 0 1 .77-.51l17.5.22a.74.46.5 0 0 .75-.46l.01-4.76a.76.49 0 0 0-.76-.49h-24a.5.5 0 0 0-.5.5V457a.66.5 90 0 0 .5.66l24.75.01a.75.68 0 0 0 .75-.68l.01-4.5a.76.49 0 0 0-.76-.49h-18.5a.5.5 0 0 1-.5-.5m51 6.13a1.01.88 0 0 0 1.01-.88l-.01-4a.54.53-88.3 0 0-.5-.54q-8.13-.53-16.25.07a.93.79-2.6 0 1-1-.78v-31.75a.75.5 90 0 0-.5-.75h-5a.5.5 0 0 0-.5.5V457a.66.5 90 0 0 .5.66zm60.82-14.81c7.64.08 14.17.52 18.22-4.91 3.81-5.12 2.85-12.89-2.63-16.49-5.1-3.35-15.31-2.61-21.58-2.29a.62.6 89 0 0-.58.62V457a.75.5 90 0 0 .5.75h4.99a.81.54-90 0 0 .54-.81l-.02-13.69a.55.43.6 0 1 .56-.43m34.99-.01c3.89-.06 8.33.22 11.67-.67 7.96-2.13 11.36-10.92 6.78-17.66-5.07-7.45-18.08-5.56-24.43-5.35a.62.6 89 0 0-.58.62V457a.7.51-89.6 0 0 .5.7l4.99.12a.57.5-89.5 0 0 .51-.57v-14a.56.44 0 0 1 .56-.44m34.42 8.69-.07-11.31a.36.34 90 0 1 .34-.36l13.25.06a.71.7-87.4 0 0 .71-.66l.29-4.24a.73.46 1.3 0 0-.75-.49H978a.68.6 90 0 1-.6-.68v-8.39a.65.61 89.6 0 1 .6-.65l17.75-.13a.76.39-.6 0 0 .75-.4l.01-4.76a.76.49 0 0 0-.76-.49H972a.75.67-90 0 0-.67.75l-.06 37.25a.64.48-90 0 0 .48.64l24.75-.01a.87.74 90 0 0 .74-.87l.01-4.26a.74.47-.5 0 0-.75-.47l-18.5.09a.63.51 89 0 1-.52-.62m83.02-27.01 17.75.22a.67.61 6 0 0 .64-.47q.53-2.33-.07-4.74a.65.57 82.3 0 0-.57-.5h-24a.52.5 0 0 0-.52.5l-.03 37.5a.62.56-89.5 0 0 .55.62l24.75.17a.72.52-.6 0 0 .74-.54l-.27-4.75a.73.53-1.2 0 0-.72-.5h-18.25a.73.5 0 0 1-.73-.5l-.06-11.25a.54.5 0 0 1 .54-.5h13.25a.76.51.4 0 0 .76-.5l.12-4.31a.63.43.4 0 0-.63-.44h-13.5a.54.5.5 0 1-.54-.51l.25-9.05a.54.46.5 0 1 .54-.45m79.48.76-.06 31.5a.6.59-83.2 0 0 .45.58q2.53.59 5.36.12a.71.64 85.3 0 0 .54-.7l-.35-31.5a.68.39 89.7 0 1 .39-.69l12.19.2a.74.51.5 0 0 .75-.51v-4.75a.75.5 0 0 0-.75-.5h-30.75a.61.6-87.4 0 0-.6.56l-.32 3.43q-.2 2.17 2.15 1.88 5.25-.64 10.47-.11a.58.48 3.2 0 1 .53.49"/><path fill="#e7726a" d="M345.5 41.71q-1.02 2.8 1.52 3.66a1.04.84 5.4 0 1 .63.62c.67 2.32-.18 4.32.06 6.44.42 3.73.65 7.42 1.1 11.15q.55 4.61-1.79 8.84l-18.07-6.96q-30.49-10.13-62.63-11.39-.28-6.23-2.83-11.68-.28-.59-.25-.88.22-2.66-1.08-4.98a1.16 1.13-7.2 0 0-.72-.54q-.68-.16-1.19-.7 43.3-5.13 85.25 6.42"/><path fill="#ee9f99" d="M260.25 35.29q.51.54 1.19.7a1.16 1.13-7.2 0 1 .72.54q1.3 2.32 1.08 4.98-.03.29.25.88 2.55 5.45 2.83 11.68-23.42-.88-46.32 3.14-20.16 3.3-39.23 10.51-15.04 5.45-29.23 12.78.51-.52.69-1.19a1.59 1.05 87.7 0 1 .48-.8q47.84-35.98 107.54-43.22"/><path fill="#e04e44" d="M345.5 41.71q29.48 7.77 55.54 23.54-.49.42.19.82c6.18 3.57 2.76 11.85 3 17.63q.02.38.32.91.54.96.7 2.88.99 12.6-.41 21.36-26.35-22.7-57.82-36.43 2.34-4.23 1.79-8.84c-.45-3.73-.68-7.42-1.1-11.15-.24-2.12.61-4.12-.06-6.44a1.04.84 5.4 0 0-.63-.62q-2.54-.86-1.52-3.66"/><path fill="#7a426f" d="M266.32 54.07q32.14 1.26 62.63 11.39.39 5.41-.05 10.66c-.51 6.15-.69 9.7-1.09 14.55-.15 1.84 1.97 4.84 2.35 6.83q.75 3.95.87 7.93l-11.78-2.89q-41.24-8.69-81.25 4.25l-16.68 6.36q-3.19-7.58-2.06-15.55.76-5.38.77-7.27.02-12.09-1.36-24.1c-.33-2.82.13-5.2.57-7.91a.87.86 2.8 0 1 .81-.72q.94-.05-.05-.39 22.9-4.02 46.32-3.14"/><path fill="#553373" d="M220 57.21q.99.34.05.39a.87.86 2.8 0 0-.81.72c-.44 2.71-.9 5.09-.57 7.91q1.38 12.01 1.36 24.1-.01 1.89-.77 7.27-1.13 7.97 2.06 15.55-12.53 5.64-24.27 13.89c-.79.55-1.35 1.44-.19 1.98a1.17.83-41 0 0 .91-.09q2.3-1.24 3.77.49l-16.63 6.97q-8.98 3.01-16.29 9.11a1.25 1.1-59.1 0 1-.87.28c-4.52-.5-3.33-7.47-2.85-10.98 2.72-19.93-1.98-39.86 2.4-59.93a1.85 1.83-4.2 0 1 1.18-1.35q6.43-2.31 12.29-5.8 19.07-7.21 39.23-10.51"/><path fill="#da2a1d" d="M401.04 65.25c127.19 75.79 147.17 250.46 41.22 353.51q-15.36 14.95-32.72 25.99-.78-2.04 1.21-3.75 9.67-8.33 19.13-19.94c31.64-38.49 50.7-86.56 51.76-136.54 1.44-68.05-25.07-129.76-76.39-175.06l-.41-.61q1.4-8.76.41-21.36-.16-1.92-.7-2.88-.3-.53-.32-.91c-.24-5.78 3.18-14.06-3-17.63q-.68-.4-.19-.82"/><path fill="#a23c52" d="m328.95 65.46 18.07 6.96q31.47 13.73 57.82 36.43l.41.61q-.44 2.27-.36 4.6c.15 4.1-1.61 8.16-2.28 12.22a.64.42-83.5 0 0 .37.73L404 127a.58.46 88.1 0 1 .47.55q.44 9.45.66 18.95c.04 1.65-.38 2.6-2.21 1.52q-.48-.28-.25.21l1.08 2.31-6.52-6.42q-28.17-27.56-66.2-38.69-.12-3.98-.87-7.93c-.38-1.99-2.5-4.99-2.35-6.83.4-4.85.58-8.4 1.09-14.55q.44-5.25.05-10.66"/><path fill="#38206b" d="M180.77 67.72q-5.86 3.49-12.29 5.8a1.85 1.83-4.2 0 0-1.18 1.35c-4.38 20.07.32 40-2.4 59.93-.48 3.51-1.67 10.48 2.85 10.98a1.25 1.1-59.1 0 0 .87-.28q7.31-6.1 16.29-9.11-3.5 2.85-7.41 4.65-38.9 23.08-60.25 63-.67-.3-1.37-.21a1.13.84-21.5 0 1-.85-.23q-3.16-3.01-2.8-6.87.85-8.92-.35-15.24a2 1.75-43.4 0 1 .09-.95q.8-2.19.3-3.57c-2.21-6.11-.06-10.23-.78-16.08-.85-6.86.23-14.75.51-21.72.35-8.83-.39-17.75-.78-26.67q-.08-1.69-2.22-2.04 19.61-17.33 42.54-29.96 14.19-7.33 29.23-12.78"/><path fill="#260e62" d="M722.5 269.25h-94a1.13 1.11-78.5 0 0-1.03.7l-14.52 34.03a.85.71-76.6 0 1-.7.52H577a.4.36-76.9 0 1-.3-.56l92.83-213.93a1.05.47-70.6 0 1 .66-.69l10.31-.06a1.46 1.11 74.9 0 1 1.15.89l92.64 213.58a.57.41 74.6 0 1-.29.78l-35.56.02a.89.52 72.8 0 1-.61-.56l-14.64-34.2a.85.7 76.3 0 0-.69-.52m-81.99-29.74a.31.31 10.8 0 0 .29.43l69.16.12a.31.31 79.1 0 0 .29-.43l-34.43-86.59a.31.31-45.6 0 0-.58 0zM842.25 124v62a.5.5 0 0 0 .5.5h101a.5.5 0 0 1 .5.5v29.75a.5.5 0 0 1-.5.5h-101a.5.5 0 0 0-.5.5V304a.5.5 0 0 1-.5.5h-33a.75.5 90 0 1-.5-.75V93.5a.5.5 0 0 1 .5-.5h134.94a.56.5 0 0 1 .56.5V123a.5.45 0 0 1-.5.45l-101 .09a.5.46 0 0 0-.5.46M1158 215.48c-7.89 56.31-55.19 88.15-109.57 88.73q-35.07.38-70.16.25a.53.46.6 0 1-.52-.46V93.5a.53.45 0 0 1 .53-.45q34.28-.1 68.46 0c70.44.21 121.47 49.5 111.26 122.43m-51.85 33.41q13.79-15.61 17-36.33c7.9-50.96-25.08-87.97-75.6-88.64q-21.21-.29-35.28-.11a.52.44 0 0 0-.52.44V273.5a.49.47.6 0 0 .48.47c34.06.26 68.8 3.35 93.92-25.08"/><path fill="#8a7daa" d="m319.25 102.54-1.31 1.17a1.05 1.04-22.3 0 0-.35.82c.34 6.09 1.69 11.8 1.93 17.97.08 1.88 1.2 7.92.44 9.25q-37.31-15.51-77.71-11.79l-3.07-4.18q-.43-.58-.48-.82-.94-4.03-.7-8.17 40.01-12.94 81.25-4.25"/><path fill="#b4abc8" d="m319.25 102.54 11.78 2.89q38.03 11.13 66.2 38.69-.9 4.61-.62 9.14.48 8.09.48 8.39-.03 5.09-.09 10.18c-.12 8.86.66 17.9.72 26.85a.4.22 2.1 0 1-.42.21q-.77-.04-.54.87a.32.28-4.6 0 1-.33.35q-.2-.01-.39-.11-26.87-46.55-76.08-68.25c.76-1.33-.36-7.37-.44-9.25-.24-6.17-1.59-11.88-1.93-17.97a1.05 1.04-22.3 0 1 .35-.82z"/><path fill="#695a93" d="M238 106.79q-.24 4.14.7 8.17.05.24.48.82l3.07 4.18q-21.03 2.1-40.71 9.46-1.47-1.73-3.77-.49a1.17.83-41 0 1-.91.09c-1.16-.54-.6-1.43.19-1.98q11.74-8.25 24.27-13.89z"/><path fill="#be2629" d="M405.25 109.46c51.32 45.3 77.83 107.01 76.39 175.06-1.06 49.98-20.12 98.05-51.76 136.54q-.54-.31-1.18-.21a.6.48-9.2 0 1-.66-.37q-.6-3.64.12-7.3a.37.04-79 0 0 .03-.37l-.2-.05a.71.43-86.5 0 1-.33-.63q-.19-8.19-1.28-16.3c-.65-4.77.08-10.16-.56-14.95q-1.22-9.03-.3-18.13 1.14-11.26 1.45-22.57 0-.26-.21-.66l-.18-.33a.92.63 53.4 0 1-.03-.86q1.07-1.5-.02-2.87a.36.33 43.6 0 0-.55-.01q-.41.58-.77-.45c33-60.84 24.66-132.93-21.46-184.46l-1.08-2.31q-.23-.49.25-.21c1.83 1.08 2.25.13 2.21-1.52q-.22-9.5-.66-18.95a.58.46 88.1 0 0-.47-.55l-1.02.01a.64.42-83.5 0 1-.37-.73c.67-4.06 2.43-8.12 2.28-12.22q-.08-2.33.36-4.6"/><path fill="#260e62" d="M109 110.46q2.14.35 2.22 2.04c.39 8.92 1.13 17.84.78 26.67-.28 6.97-1.36 14.86-.51 21.72.72 5.85-1.43 9.97.78 16.08q.5 1.38-.3 3.57a2 1.75-43.4 0 0-.09.95q1.2 6.32.35 15.24-.36 3.86 2.8 6.87a1.13.84-21.5 0 0 .85.23q.7-.09 1.37.21c-32.16 62.4-20.7 136.31 28.5 186.17-2.71-1.43-4.6-3.45-7.03-5.06q-1.42-.94-2.61-1.66-1.95-1.18-2.63.99c-2.95 9.35-1.58 19.92-5.43 28.81q-2.14 4.97-2.22 11.24c-.04 3.42-1.78 6.37-1.79 9.97q-.02 7.42-.23 14.83c-.05 1.96.77 4.07.32 6.39a.71.68-69 0 0 .31.74c4.14 2.46 7.86 5.43 12.01 7.8q1.86 1.06 2.51 3.24C12.05 389.3-2.02 209.41 109 110.46"/><path fill="#fff" d="M319.96 131.75q49.21 21.7 76.08 68.25c34.81 63.89 24.29 140.32-27.49 191.53q-1.17 1.15-1.54 2.8l-12.76 7.13q-53.09 23.84-109.75 9.25-37.63-10.69-66.25-37.25c-66.78-63.94-66.68-165.54-1.28-230.54.6-.59.66-1.08.53-1.88q3.91-1.8 7.41-4.65l16.63-6.97q19.68-7.36 40.71-9.46 40.4-3.72 77.71 11.79m786.19 117.14c-25.12 28.43-59.86 25.34-93.92 25.08a.49.47.6 0 1-.48-.47V124.25a.52.44 0 0 1 .52-.44q14.07-.18 35.28.11c50.52.67 83.5 37.68 75.6 88.64q-3.21 20.72-17 36.33"/><path fill="#f7cecc" d="M177.5 141.04c.13.8.07 1.29-.53 1.88-65.4 65-65.5 166.6 1.28 230.54q-1 .17-1.06.98-1.11 14.6-.16 31.51a1.73.55-86.2 0 0 .25 1.01q1.66 2.25 1.47 5.03a.83.78-10.6 0 1-.5.68q-1.22.5-.5 2.04-17.58-10.19-32-24.5c-49.2-49.86-60.66-123.77-28.5-186.17q21.35-39.92 60.25-63"/><path fill="#d0cbdd" d="m397.23 144.12 6.52 6.42c46.12 51.53 54.46 123.62 21.46 184.46q-21.26 37.34-58.2 59.33.37-1.65 1.54-2.8c51.78-51.21 62.3-127.64 27.49-191.53q.19.1.39.11a.32.28-4.6 0 0 .33-.35q-.23-.91.54-.87a.4.22 2.1 0 0 .42-.21c-.06-8.95-.84-17.99-.72-26.85q.06-5.09.09-10.18 0-.3-.48-8.39-.28-4.53.62-9.14"/><path fill="#fff" d="m640.51 239.51 34.73-86.47a.31.31-45.6 0 1 .58 0l34.43 86.59a.31.31 79.1 0 1-.29.43l-69.16-.12a.31.31 10 0 1-.29-.43"/><path fill="#ab3746" d="M425.21 335q.36 1.03.77.45a.36.33 43.6 0 1 .55.01q1.09 1.37.02 2.87a.92.63 53.4 0 0 .03.86l.18.33q.21.4.21.66-.31 11.31-1.45 22.57-.92 9.1.3 18.13c.64 4.79-.09 10.18.56 14.95q1.09 8.11 1.28 16.3a.71.43-86.5 0 0 .33.63l.2.05a.37.04-79 0 1-.03.37q-.72 3.66-.12 7.3a.6.48-9.2 0 0 .66.37q.64-.1 1.18.21-9.46 11.61-19.13 19.94-1.99 1.71-1.21 3.75l-18.58 11.75q-17.79 8.46-36.46 14.71-.62-.85-1.07-.68a1.05 1.05 77.7 0 1-1.41-.91c-.88-11.74.48-20.98-1.3-33.26q-.92-6.34-.71-10.66.27-5.54 1.16-10.67.36-2.09.18-4.21-.3-3.59-2.85-2.86l6.32-4.7a.56.55-35.2 0 0 .14-.76l-.71-1.04 12.76-7.13q36.94-21.99 58.2-59.33"/><path fill="#260e62" d="m584.5 386.28-2.38 5.31a.99.58-72.5 0 1-.68.62l-5.7.03a.46.33-75.3 0 1-.24-.62q12.43-28.85 16.21-37.38c.89-2.02 2.41-1.59 3.18.16q8.18 18.62 16.22 37.38a.37.34-10.4 0 1-.36.47h-5.25a1.06.59-5.7 0 1-.9-.39l-2.5-5.68a1 .69-7.8 0 0-.85-.43h-16a.9.78-76.1 0 0-.75.53m2.58-6.22a.32.32-79.1 0 0 .3.44h11.74a.32.32 79.1 0 0 .3-.44l-5.87-14.72a.32.32-45.2 0 0-.6 0zm348.42 5.69h-15.75a1.02.68 7.6 0 0-.86.42l-2.28 5.17a1.05.35-68.5 0 1-.6.72l-5.76.16a.57.4-75.1 0 1-.28-.77l15.98-36.73q1.76-4.05 3.53.04l15.97 36.76a.53.51 77.7 0 1-.45.74l-5.5-.01a.78.44 71.4 0 1-.53-.48l-2.61-5.6a1.03.7-8.2 0 0-.86-.42m-13.95-5.7a.34.34 10.9 0 0 .31.46l11.68-.02a.34.34-10.7 0 0 .31-.46l-5.86-14.56a.34.34-45.1 0 0-.63 0zm38.08-12.56.09 24.01a.76.47-90 0 1-.47.76l-5.25-.01a.75.49 90 0 1-.49-.75l.01-37.45q.01-3.31 2.23-.79l22.03 24.95q1.44 1.63 1.43-.45l-.16-23.51a.5.45 90 0 1 .45-.5l5.25.01a.67.53 90 0 1 .53.67l-.02 37.32q0 2.3-1.8.95-1.1-.82-2.27-2.14-10.22-11.53-20.61-23.45-.96-1.1-.95.38m103.44 18.31-16.57-.04a.85.74-76.8 0 0-.71.51l-2.3 5.22a1.02.53-72 0 1-.67.66l-5.58.08a.53.34-73.9 0 1-.21-.71l16.27-37.45q1.03-2.38 2.69-.35.61.74 1.45 2.7 7.53 17.54 15.04 35.11a.52.52 78.8 0 1-.48.72h-5.24a1.12.84 74.6 0 1-.86-.67l-2.23-5a1.08.29 67.6 0 0-.6-.78m-14.46-5.86a.32.32 11 0 0 .3.44l11.58.04a.32.32-10.7 0 0 .3-.44l-5.74-14.55a.32.32 44.6 0 0-.59 0zm-419.65-19.67c-10.92 5.46-9.72 22.41 1.37 26.13 5.44 1.82 17.98.14 16.61-8.25a.74.69-3.2 0 0-.7-.58l-10.24-.34a.75.49.8 0 1-.73-.49l-.11-4.55a.59.43-.5 0 1 .59-.44h16.75a.64.62-1.4 0 1 .64.59c.22 3.66.85 9.5-1.47 12.55-7.88 10.35-23.56 10.46-32.01.94-8.78-9.89-5.02-25.28 6.92-30.99 7.49-3.58 18.78-1.96 24.02 5.74a.8.45 54 0 1 .1.87l-3.51 3a.69.45 48.1 0 1-.78-.21q-8.07-8.66-17.45-3.97m75.29 6.98v24.5a.51.5 0 0 1-.51.5l-3.82-.01q-1.94-.01-1.92-2.42l.29-36.07a.68.64 81.9 0 1 .45-.64q1.24-.39 2.21.69 11.24 12.65 22.04 25.16.69.8.69-.28l.09-24.43a.73.47-89.3 0 1 .49-.74l5.25.21a.71.54-87.7 0 1 .51.73c-.61 12.47-.39 25.24-.28 37.75a.76.63 82.9 0 1-.45.7c-.6.19-1.46-.03-1.9-.53q-11.25-12.64-22.35-25.44-.79-.91-.79.32m71.51 17.42c-11.24 15.84-36.95 7.19-36.24-12.43.68-18.93 25.53-26.37 36.25-10.92a.67.6 53.5 0 1-.08.86l-3.42 2.84a.76.74 53.2 0 1-1.1-.17c-5.38-7.86-16.69-8.17-22.35-.77-11.37 14.86 10.63 33 22.33 16.97a.66.48-53.1 0 1 .79-.24l3.92 3.08a.71.39-53.9 0 1-.1.78m236.44 8.04q-14.8-3.13-16.92-16.52c-3.38-21.36 22.67-30.97 35.99-15.08a.79.55 51 0 1 .07.98l-3.92 3.07a.65.44 52.5 0 1-.75-.25c-11.62-15.56-33.05.89-22.86 16.27 5.52 8.33 16.92 7.62 22.83-.11a.68.47-52.1 0 1 .79-.25l3.81 2.94a.79.52-53.1 0 1-.06.93q-5.53 7.44-14.87 8.06a1.54 1.33 16.9 0 0-.96.43c-1.71 1.83 7.04 4.1 2.13 8.83-2.09 2.01-10.97 2.58-8.07-1.22a.82.72 24.3 0 1 .81-.25c1.84.46 8.06.15 3.75-3.06q-.25-.18-.9-.33l-1.82-.4a.55.35-68.4 0 1-.14-.71l1.38-2.77a.41.39 18.8 0 0-.29-.56m89.24-21.9c-6.75-5.09-3.92-14.64 3.81-16.95q10-2.99 16.77 5.49a.63.41 52 0 1 .07.75l-3.68 2.81a.58.55 52.8 0 1-.79-.13c-7.24-9.51-19.98-.04-10.2 4.82 5.8 2.88 12.15 5.19 14.36 9.57 3.23 6.38-.65 13.17-7.23 14.9q-11.43 2.99-18.78-6.91a.68.55 52.9 0 1 .03-.86l3.65-2.84a.54.45 50.9 0 1 .67.13c10.28 12.37 23.89.42 11.64-4.92q-6.09-2.66-10.32-5.86M792 369.25h13.25a.5.5 0 0 1 .5.5V374a.75.47 0 0 1-.75.47l-12.75-.12a.75.4 0 0 0-.75.4v11.5a.75.5 0 0 0 .75.5h18.5a.5.5 0 0 1 .5.5v4.5a.5.5 0 0 1-.5.5h-25a.5.5 0 0 1-.5-.5v-37.5a.5.5 0 0 1 .5-.5l23.94-.02a.79.53.3 0 1 .79.54l-.04 4.47a.69.51 0 0 1-.69.51H792a.5.5 0 0 0-.5.5v9a.5.5 0 0 0 .5.5m-122.32-.06 13.32.04a.72.32.7 0 1 .71.33l.03 4.44a.74.49-.4 0 1-.74.5h-12.75a1.02.99-.3 0 0-1.02 1l.14 10.82a.44.42 0 0 0 .44.42l18.69.01a.75.5 0 0 1 .75.5v4.5a.5.5 0 0 1-.5.5h-25a.5.5 0 0 1-.5-.5v-37.5a.5.5 0 0 1 .5-.5H688a.5.5 0 0 1 .5.5v4.5a.5.5 0 0 1-.5.5h-18a.53.51.6 0 0-.53.5l-.09 8.76a.67.31-89.3 0 0 .3.68m176.57 7.56v14.75a.76.5-90 0 1-.5.76l-5.25-.01a.75.52 90 0 1-.52-.75l.11-37.25a.5.41-90 0 1 .41-.5h23.75a.5.5 0 0 1 .5.5v4.5a.5.5 0 0 1-.5.5h-17.5a.5.5 0 0 0-.5.5v10.5a.5.5 0 0 0 .5.5h14a.76.49 0 0 1 .76.49l-.01 4.75a.75.4 0 0 1-.75.4l-14-.11a.5.47 0 0 0-.5.47m32.5 1v13.75a.75.5-90 0 1-.5.75H873a.74.48-89.5 0 1-.48-.75l.05-37a.62.57 89 0 1 .55-.62q12.02-.47 15.55-.04c12.43 1.54 15.3 16.71 4.18 22.39a.5.42-31.1 0 0-.23.67l10.77 14.69q.48.64-.14.63l-6.45-.17a1.22.1 53.8 0 1-.74-.86l-9.63-13.12a1.42.98 66.7 0 0-.93-.58l-6.25-.21a.49.47.6 0 0-.5.47m11.79-17.56q-1.02-.92-3.04-.92l-8.25-.01a.49.49.6 0 0-.5.49V371a.66.55-87.6 0 0 .5.65q5.55.56 10.96-.58a1.62.66-58.1 0 0 .79-.57q4.91-5.47-.46-10.31"/><rect width="6.26" height="38.5" x="1080.5" y="353.75" fill="#260e62" rx=".52"/><path fill="#260e62" d="m1140.07 386.72 18.18.02a.56.44 87.3 0 1 .45.52l.33 3.76a1.27 1.12-2.3 0 1-1.28 1.22l-24.5.01a.5.5 0 0 1-.5-.5v-37.5a.5.5 0 0 1 .5-.5h24.5a.5.5 0 0 1 .5.5v4.5a.5.5 0 0 1-.5.5h-18a.75.5 0 0 0-.75.5v9a.5.5 0 0 0 .5.5h13.5a.5.5 0 0 1 .5.5V374a.75.5 0 0 1-.75.5h-13.25a.5.5 0 0 0-.5.5l-.01 10.76a1.08.96 0 0 0 1.08.96"/><path fill="#fff" d="M890.54 360.19q5.37 4.84.46 10.31a1.62.66-58.1 0 1-.79.57q-5.41 1.14-10.96.58a.66.55-87.6 0 1-.5-.65v-11.25a.49.49.6 0 1 .5-.49l8.25.01q2.02 0 3.04.92m-303.46 19.87 5.87-14.72a.32.32-45.2 0 1 .6 0l5.87 14.72a.32.32 79.4 0 1-.3.44h-11.74a.32.32-79.4 0 1-.3-.44m461.53-.12 5.85-14.51a.32.32 43.7 0 1 .59 0l5.74 14.55a.32.32-10.8 0 1-.3.44l-11.58-.04a.32.32 11.2 0 1-.3-.44m-127.06.11 5.81-14.58a.34.34-44.8 0 1 .63 0l5.86 14.56a.34.34-9.8 0 1-.31.46l-11.68.02a.34.34 11.1 0 1-.31-.46"/><path fill="#f0a8a3" d="M178.25 373.46q28.62 26.56 66.25 37.25-.59.38-1.05.29a.3.24 5 0 0-.37.24l2.81 24.03a.29.29 4.8 0 1-.37.31q-.91-.27-1.77.21-23.42-2.07-45.25-10.75-10.75-4.41-20.75-10.33-.72-1.54.5-2.04a.83.78-10.6 0 0 .5-.68q.19-2.78-1.47-5.03a1.73.55-86.2 0 1-.25-1.01q-.95-16.91.16-31.51.06-.81 1.06-.98"/><path fill="#422870" d="M145.75 390.21q14.42 14.31 32 24.5 10 5.92 20.75 10.33-.94 1.55-2.1 1.87a2.28 2.27-6.7 0 0-1.65 2.07c-.13 2.45.11 9.39-1.2 11.14a1.59 1.11-35 0 0-.32.88q.27 9.22-1.22 18.31a.63.6-68.4 0 0 .25.62q.5.36-.51.53-20.75-9.72-39.14-23.4a.86.77 48.3 0 0-.86-.1c-2.57 1.27-1.45 4.84-1.47 7.2a.33.22-89.6 0 0 .22.34l.25-.01a.59.45-82.3 0 1 .42.73q-.55 2.12-.43 2.78 1.73 9.4 1.06 12.26-1.82 7.79.94 15.33l-13.78-8.09q-.65-2.18-2.51-3.24c-4.15-2.37-7.87-5.34-12.01-7.8a.71.68-69 0 1-.31-.74c.45-2.32-.37-4.43-.32-6.39q.21-7.41.23-14.83c.01-3.6 1.75-6.55 1.79-9.97q.08-6.27 2.22-11.24c3.85-8.89 2.48-19.46 5.43-28.81q.68-2.17 2.63-.99 1.19.72 2.61 1.66c2.43 1.61 4.32 3.63 7.03 5.06"/><path fill="#ea817a" d="m354.25 401.46.71 1.04a.56.55-35.2 0 1-.14.76l-6.32 4.7q-35.36 24.29-78.25 28.08-13.27 1.09-26.5-.25.86-.48 1.77-.21a.29.29 4.8 0 0 .37-.31l-2.81-24.03a.3.24 5 0 1 .37-.24q.46.09 1.05-.29 56.66 14.59 109.75-9.25"/><path fill="#8d4265" d="M354.5 471.21q-36.71 11.49-75.26 10.24l-8.99-.49q2.05-.02 1-.95a1.3 1.05 23.4 0 1-.42-.8q-.67-11.07-1.64-22.13c-.29-3.27.1-6.83-.12-10.33-.16-2.53-.37-8.65 2.15-9.97q.53-.27.02-.43l-.99-.31q42.89-3.79 78.25-28.08 2.55-.73 2.85 2.86.18 2.12-.18 4.21-.89 5.13-1.16 10.67-.21 4.32.71 10.66c1.78 12.28.42 21.52 1.3 33.26a1.05 1.05 77.7 0 0 1.41.91q.45-.17 1.07.68"/><path fill="#260e62" d="M725.25 415.87c1.16-1.45 2.51-3.53 3.83-4.89a1.5.86-57.9 0 1 .92-.49l5 .01q.63 0 .15.55c-2.94 3.36-4.47 6.7-9.7 5.4a.36.36-64.1 0 1-.2-.58m310.86 19.37q.01-1.85-1.07-.44l-9.84 12.89a1.16 1.13-57.9 0 1-1.42.34c-3.16-1.56-8.89-10.58-11.32-13.76q-.69-.89-.68.23l.07 22.5a.85.75.4 0 1-.86.75h-4.74a.5.5 0 0 1-.5-.5V419a.64.6-6.6 0 1 .5-.59q1.33-.28 2 .61 7.74 10.29 15.47 20.6a.38.37-45.5 0 0 .6-.01q7.62-10.26 15.34-20.43.88-1.17 2.11-.81a.65.65-82.5 0 1 .48.63v38a.75.5-90 0 1-.5.75h-5.25a.75.47 90 0 1-.47-.75zm58.14-2.74V457a.75.5-90 0 1-.5.75h-5.25a.75.49 90 0 1-.49-.75l.08-37.75a.82.79 79.3 0 1 .49-.75q1.18-.5 2.12.55 11.06 12.44 22 25.03.97 1.11.98-.32l.13-24.26a.5.44 90 0 1 .44-.5h5a.75.5 90 0 1 .5.75v37.26q0 3.51-2.47.7l-22.36-25.39q-.67-.76-.67.18m-201.87 5.94a20.24 19.92.2 0 1-20.31 19.85 20.24 19.92.2 0 1-20.17-19.99 20.24 19.92.2 0 1 20.31-19.85 20.24 19.92.2 0 1 20.17 19.99m-19.922 14.127a14.21 13.81 88.8 0 0 13.509-14.496 14.21 13.81 88.8 0 0-14.105-13.918 14.21 13.81 88.8 0 0-13.509 14.496 14.21 13.81 88.8 0 0 14.105 13.918M577.36 457.52a.37.27 1 0 1-.36-.27v-37.5a.52.51-1.8 0 1 .49-.51c11.92-.95 27.04-1.09 31.71 12.95 2.88 8.63-1.01 19.2-9.39 23.22-6.07 2.9-15.05 2.27-22.45 2.11m5.97-6.33a.89.76 2.4 0 0 .83.77c8.64.63 17.96-1.38 19.31-11.46 1.68-12.61-8.85-16.81-19.55-15.64a.66.63 87.6 0 0-.56.64zm41.95-10.94.27 11.5a.7.45-.4 0 0 .7.44l18.25-.14a.75.44-.6 0 1 .76.44l-.01 4.75a.74.47.5 0 1-.75.47l-25-.16a.55.44-89.5 0 1-.43-.55l-.02-37.43a.7.57 0 0 1 .7-.57h24a.75.5 0 0 1 .75.5v4.74a.75.38 0 0 1-.75.38l-17.5-.09a.89.54 0 0 0-.89.54l.01 8.93a.63.5 0 0 0 .63.5h13a.75.5 0 0 1 .75.5l.01 4a1.03.91 80.5 0 1-.58.93q-.65.25-1.25-.11a1.63.56-8.8 0 0-.94-.17l-11.23.1a.49.49 0 0 0-.48.5m61.46-20.99c25.2 1.69 25.42 35.34 1.68 38.16q-2.34.28-15.15.04a.53.46.6 0 1-.52-.46v-37.25a.77.71-1.3 0 1 .74-.71q6.64-.22 13.25.22m12.33 16.26c-1.46-9.96-11.32-11.27-19.61-10.73a.57.45-1.9 0 0-.54.46l.35 26.25a.58.47 2.1 0 0 .53.47c11.23.79 21.22-3.19 19.27-16.45m22.09 4.67.07 11.56a.77.44 0 0 0 .77.44l18.25-.15a.75.46 0 0 1 .75.46l.01 4.25a1.01 1 0 0 1-1.01 1l-24.31-.17a.79.58 0 0 1-.79-.58l-.04-37.5a.64.55 0 0 1 .64-.55h24.25a.55.5 90 0 1 .5.55v4.49a.75.5 0 0 1-.75.5l-17.94.05a.52.45 89.4 0 0-.44.52l.1 8.94a.53.51-.6 0 0 .53.5h13a.75.5 0 0 1 .75.5v4.5a.73.54 1 0 1-.75.53l-13-.25a.58.41.6 0 0-.59.41m43.15 5q.31.78.64 0l10.64-25.61a.92.59-74.3 0 1 .66-.58h6a.38.34-77.3 0 1 .29.52l-16.43 37.81q-1.44 3.32-2.99-.24l-16.2-37.31a.56.43 75.9 0 1 .33-.76l6.07.07a.86.33 70.9 0 1 .5.59zm32.44 6.81h18.5a.76.49 0 0 1 .76.49l-.01 4.5a.75.68 0 0 1-.75.68l-24.75-.01a.66.5 90 0 1-.5-.66v-37.5a.5.5 0 0 1 .5-.5h24a.76.49 0 0 1 .76.49l-.01 4.76a.74.46.5 0 1-.75.46l-17.5-.22a.76.52.9 0 0-.77.51l-.05 9.06a.57.44 0 0 0 .57.44H810a.63.43.4 0 1 .63.44l-.12 4.3a.77.67.3 0 1-.76.65l-13 .07a.54.51 89.5 0 0-.5.54v11a.5.5 0 0 0 .5.5m50.5 5.63-22.25.03a.66.5 90 0 1-.5-.66v-37.5a.5.5 0 0 1 .5-.5h5a.75.5 90 0 1 .5.75v31.75a.93.79-2.6 0 0 1 .78q8.12-.6 16.25-.07a.54.53-88.3 0 1 .5.54l.01 4a1.01.88 0 0 1-1.01.88m60.26-14.38.02 13.69a.81.54-90 0 1-.54.81H902a.75.5 90 0 1-.5-.75v-37.25a.62.6 89 0 1 .58-.62c6.27-.32 16.48-1.06 21.58 2.29 5.48 3.6 6.44 11.37 2.63 16.49-4.05 5.43-10.58 4.99-18.22 4.91a.55.43.6 0 0-.56.43m11.79-17.57a5.4 4.24 56.7 0 0-2.8-.94l-8.25.01a.5.5 0 0 0-.5.5v11.5a.56.46 1.3 0 0 .54.46q7 .39 9.39-.29c5.32-1.5 5.99-8.22 1.62-11.24m23.2 17.57v14a.57.5-89.5 0 1-.51.57l-4.99-.12a.7.51-89.6 0 1-.5-.7v-37.25a.62.6 89 0 1 .58-.62c6.35-.21 19.36-2.1 24.43 5.35 4.58 6.74 1.18 15.53-6.78 17.66-3.34.89-7.78.61-11.67.67a.56.44 0 0 0-.56.44m12.22-17.2c-2.82-2.06-8.27-1.36-11.68-1.29a.52.48-1.1 0 0-.51.49l.18 11.5a.58.48 1.4 0 0 .55.47c6.55.31 14.87.73 13.66-7.51q-.33-2.29-2.2-3.66M978 452.12l18.5-.09a.74.47-.5 0 1 .75.47l-.01 4.26a.87.74-90 0 1-.74.87l-24.75.01a.64.48-90 0 1-.48-.64l.06-37.25a.75.67-90 0 1 .67-.75h23.75a.76.49 0 0 1 .76.49l-.01 4.76a.76.39-.6 0 1-.75.4l-17.75.13a.65.61 89.6 0 0-.6.65v8.39a.68.6 90 0 0 .6.68h13.25a.73.46 1.3 0 1 .75.49l-.29 4.24a.71.7-87.4 0 1-.71.66l-13.25-.06a.36.34 90 0 0-.34.36l.07 11.31a.63.51 89 0 0 .52.62m81.96-27.18-.25 9.05a.54.5.5 0 0 .54.51h13.5a.63.43.4 0 1 .63.44l-.12 4.31a.76.51.4 0 1-.76.5h-13.25a.54.5 0 0 0-.54.5l.06 11.25a.73.5 0 0 0 .73.5h18.25a.73.53-1.2 0 1 .72.5l.27 4.75a.72.52-.6 0 1-.74.54l-24.75-.17a.62.56-89.5 0 1-.55-.62l.03-37.5a.52.5 0 0 1 .52-.5h24a.65.57 82.3 0 1 .57.5q.6 2.41.07 4.74a.67.61 6 0 1-.64.47l-17.75-.22a.54.46.5 0 0-.54.45m79.49-.18q-5.22-.53-10.47.11-2.35.29-2.15-1.88l.32-3.43a.61.6-87.4 0 1 .6-.56h30.75a.75.5 0 0 1 .75.5v4.75a.74.51.5 0 1-.75.51l-12.19-.2a.68.39 89.7 0 0-.39.69l.35 31.5a.71.64 85.3 0 1-.54.7q-2.83.47-5.36-.12a.6.59-83.2 0 1-.45-.58l.06-31.5a.58.48 3.2 0 0-.53-.49"/><ellipse fill="#fff" rx="14.21" ry="13.81" transform="rotate(88.8 212.26 664.49)"/><path fill="#fff" d="M954.72 426.05q1.87 1.37 2.2 3.66c1.21 8.24-7.11 7.82-13.66 7.51a.58.48 1.4 0 1-.55-.47l-.18-11.5a.52.48-1.1 0 1 .51-.49c3.41-.07 8.86-.77 11.68 1.29m-371.39 25.14.03-25.69a.66.63 87.6 0 1 .56-.64c10.7-1.17 21.23 3.03 19.55 15.64-1.35 10.08-10.67 12.09-19.31 11.46a.89.76 2.4 0 1-.83-.77m96.13-26.4c8.29-.54 18.15.77 19.61 10.73 1.95 13.26-8.04 17.24-19.27 16.45a.58.47 2.1 0 1-.53-.47l-.35-26.25a.57.45-1.9 0 1 .54-.46m239.84.89c4.37 3.02 3.7 9.74-1.62 11.24q-2.39.68-9.39.29a.56.46 1.3 0 1-.54-.46v-11.5a.5.5 0 0 1 .5-.5l8.25-.01a5.4 4.24 56.7 0 1 2.8.94"/><path fill="#683d73" d="M198.5 425.04q21.83 8.68 45.25 10.75 13.23 1.34 26.5.25l.99.31q.51.16-.02.43c-2.52 1.32-2.31 7.44-2.15 9.97.22 3.5-.17 7.06.12 10.33q.97 11.06 1.64 22.13a1.3 1.05 23.4 0 0 .42.8q1.05.93-1 .95-40.52-2.94-77.5-20.04-.35-.31-1-.46 1.01-.17.51-.53a.63.6-68.4 0 1-.25-.62q1.49-9.09 1.22-18.31a1.59 1.11-35 0 1 .32-.88c1.31-1.75 1.07-8.69 1.2-11.14a2.28 2.27-6.7 0 1 1.65-2.07q1.16-.32 2.1-1.87"/><path fill="#4d3a7f" d="M191.75 460.46q.65.15 1 .46-2.34 4.79-1.44 10.02c.83 4.83.32 10.07 1.54 14.31q1.16 4.05 3.15 7.79-22.61-6.34-43.26-17.45-2.76-7.54-.94-15.33.67-2.86-1.06-12.26-.12-.66.43-2.78a.59.45-82.3 0 0-.42-.73l-.25.01a.33.22-89.6 0 1-.22-.34c.02-2.36-1.1-5.93 1.47-7.2a.86.77 48.3 0 1 .86.1q18.39 13.68 39.14 23.4"/><path fill="#9c90b7" d="m390.96 456.5-.82 1.48q-.29.53-.61.75-46.01 33.65-102.74 41.02.06-.26-.03-.47a.85.49-5.5 0 0-.7-.32c-5.41-.05-6.15-3.45-6.23-8.23q-.07-4.58-.59-9.28 38.55 1.25 75.26-10.24 18.67-6.25 36.46-14.71"/><path fill="#6e5f97" d="M192.75 460.92q36.98 17.1 77.5 20.04l8.99.49q.52 4.7.59 9.28c.08 4.78.82 8.18 6.23 8.23a.85.49-5.5 0 1 .7.32q.09.21.03.47-46.14 6.1-90.79-6.71-1.99-3.74-3.15-7.79c-1.22-4.24-.71-9.48-1.54-14.31q-.9-5.23 1.44-10.02"/></svg>