<svg xmlns="http://www.w3.org/2000/svg" viewBox="0 0 357.9 357.9"><defs><linearGradient id="a" x1="179" x2="179" y1="357.9" y2="0" gradientUnits="userSpaceOnUse"><stop offset="0" stop-color="#f04e30"/><stop offset="1" stop-color="#ffc233"/></linearGradient></defs><path fill="url(#a)" d="M357.9 325c0 18.2-14.8 33-33 33H33c-18.2 0-33-14.8-33-33V33C0 14.8 14.8 0 33 0h292c18.2 0 33 14.8 33 33v292Z"/><path fill="#fff" d="M251.3 224.3c0-9.9 8-16.5 19.1-16.5s14.8 2.5 20.3 7l-6.3 9.1c-4.8-3.4-9.6-5.4-14.2-5.4s-7 2.1-7 4.8v.2c0 3.6 2.4 4.8 11.8 7.2 11.1 2.9 17.3 6.9 17.3 16.4v.2c0 10.9-8.3 16.9-20.1 16.9s-16.6-2.9-23.2-8.7l7.1-8.5c4.9 4.1 10.1 6.6 16.3 6.6s7.9-2 7.9-5.2v-.2c0-3-1.9-4.6-11-6.9-11-2.8-18.1-5.9-18.1-16.7v-.2m47-15.7v54.7h38.5v-10.7h-26.6v-11.5h26.6v-10.7h-26.6v-11.1h26.6v-10.7zm-54.3 0h-12v54.7h12zm-12 54.6v-54.7zM103 208.7V240c0 8.7-4.4 13.1-11.8 13.1s-11.8-4.6-11.8-13.5v-30.9h-12v31.2c0 16.1 9 24.3 23.7 24.3s24-8.1 24-24.7v-30.8zm74.6 0h27c6.9 0 12.3 2 15.9 5.5 3 3.1 4.7 7.3 4.7 12.5v.2c0 8.8-4.8 14.4-11.7 16.9l13.4 19.5h-14.1l-11.7-17.5h-9.5v17.5h-12V230c0-15.6-2-21.4-2-21.4Zm14 10.8v15.7h12.2c5.9 0 9.2-3.1 9.2-7.7v-.2c0-5.2-3.6-7.8-9.4-7.8zm-91.4 65.7-1.1 5.2c-.1.6-.3 1.1-.5 1.7s-.4 1.2-.7 1.7c-.3.6-.6 1.1-.9 1.6s-.7 1-1.1 1.3c-.4.4-.9.7-1.4.9q-.75.3-1.5.3c-.75 0-1 0-1.3-.3-.4-.2-.7-.5-.9-.8s-.4-.8-.5-1.3-.2-1.1-.2-1.7 0-1.1.1-1.8c0-.6.3-1.3.5-2s.5-1.3.9-2 .8-1.2 1.4-1.7c.5-.5 1.2-.9 1.9-1.2s1.6-.5 2.5-.5.9 0 1.5.1c.5 0 1 .1 1.4.2Zm.8 9.3 2.4-11.3c-.9-.2-1.9-.3-2.8-.5-.9-.1-1.9-.2-2.7-.2-1.4 0-2.6.2-3.7.6s-2 .9-2.8 1.6c-.8.6-1.4 1.4-2 2.2-.5.8-1 1.7-1.3 2.5-.3.9-.5 1.7-.7 2.5-.1.8-.2 1.5-.2 2.2 0 1.1.1 2 .4 2.8.2.8.6 1.5 1 2s1 .9 1.6 1.2 1.3.4 2 .4 1.3 0 1.9-.3c.5-.2 1-.5 1.4-.9s.8-.8 1.2-1.3.7-1 1.1-1.5c0 .2 0 .5-.1.8 0 .3 0 .7-.1 1v1.8h2.8v-1c0-.4 0-.9.2-1.4 0-.5.1-1 .2-1.6 0-.5.1-1 .2-1.4Zm25.2-17.6c0-.2 0-.5-.1-.7 0-.2-.2-.4-.4-.6s-.3-.3-.6-.4c-.2 0-.4-.1-.7-.1s-.4 0-.7.1c-.2.1-.4.2-.6.4s-.3.3-.4.6c0 .2-.2.4-.2.7s0 .5.2.7c0 .2.2.4.4.6.1.2.3.3.6.4.2 0 .4.1.7.1s.5 0 .7-.1c.2 0 .4-.2.6-.4s.3-.3.4-.6c0-.2.1-.4.1-.7m-5.3 23.1 3.6-17h-2.8l-3.6 17zm30.3-14.1.5-3c-.2 0-.5-.1-.8-.2h-.9q-.75 0-1.5.3c-.5.2-.9.5-1.3.8-.4.4-.8.8-1.1 1.3-.4.5-.7 1.1-1.1 1.7v-.6c0-.3 0-.6.1-.9 0-.3 0-.7.1-1.1 0-.4 0-.7.1-1.1h-2.7c0 .4 0 .8-.1 1.3 0 .5-.2 1-.2 1.5s-.2 1-.3 1.5l-.3 1.5-2.4 11.3h2.7l1.6-7.4c.2-.9.5-1.8.8-2.7.4-.9.8-1.7 1.3-2.3.5-.7 1-1.2 1.6-1.6q.9-.6 1.8-.6c.9 0 .7 0 1.1.2.3.1.6.3.9.4ZM182 300l8.7-17h-2.8l-6.1 12.7c0 .1-.1.2-.2.4 0 .1-.1.3-.2.4 0 .1-.1.3-.2.4 0 .1-.1.3-.1.4h-.1v-1.6l-.9-12.7h-2.4l-6.6 12.7c-.1.2-.2.5-.3.8l-.3.9v-1.6l-.8-12.7h-2.6l1.5 17h2.7l6.4-12 .2-.4c0-.1.1-.3.2-.5 0-.2.1-.3.2-.5 0-.2 0-.3.1-.4v1.7l1 12.1h2.7Zm34.6-14.8-1.1 5.2c-.1.6-.3 1.1-.5 1.7s-.4 1.2-.7 1.7c-.3.6-.6 1.1-.9 1.6s-.7 1-1.1 1.3c-.4.4-.9.7-1.4.9s-1 .3-1.6.3-1 0-1.3-.3c-.4-.2-.7-.5-.9-.8s-.4-.8-.5-1.3-.2-1.1-.2-1.7 0-1.1.1-1.8c0-.6.2-1.3.5-2 .2-.7.5-1.3.9-2s.8-1.2 1.4-1.7c.5-.5 1.2-.9 1.9-1.2s1.6-.5 2.5-.5.9 0 1.5.1c.5 0 1 .1 1.4.2Zm.8 9.3 2.4-11.3c-.9-.2-1.9-.3-2.8-.5-.9-.1-1.9-.2-2.7-.2-1.4 0-2.6.2-3.7.6s-2 .9-2.8 1.6c-.8.6-1.4 1.4-2 2.2-.5.8-1 1.7-1.3 2.5-.3.9-.5 1.7-.7 2.5-.1.8-.2 1.5-.2 2.2 0 1.1.1 2 .4 2.8.2.8.6 1.5 1 2s1 .9 1.6 1.2 1.3.4 2 .4 1.4 0 1.9-.3c.5-.2 1-.5 1.4-.9s.8-.8 1.2-1.3.7-1 1.1-1.5c0 .2 0 .5-.1.8 0 .3 0 .7-.1 1v1.8h2.8v-1c0-.4 0-.9.2-1.4 0-.5.1-1 .2-1.6 0-.5.1-1 .2-1.4Zm22.4 8.3 12.1-19.8h-3l-7.5 13.1c-.1.2-.3.4-.4.7 0 .2-.2.4-.2.6h-.1v-1.3l-2-13h-2.8L239 300l-2 3.2c-.6.9-1.1 1.5-1.7 1.9q-.9.6-2.1.6h-.8c-.3 0-.5-.1-.7-.2l-.5 2.4c.2 0 .4 0 .7.1h.9q1.2 0 2.1-.3c.6-.2 1.2-.6 1.8-1 .6-.5 1.1-1 1.6-1.6s1-1.4 1.5-2.2Zm35.3-16.8.6-2.6c-.5-.3-1.1-.4-1.8-.6s-1.5-.2-2.3-.2-1.9.1-2.7.4-1.4.7-1.9 1.1c-.5.5-.9 1-1.1 1.7-.3.6-.4 1.3-.4 2s.3 1.8.8 2.5c.5.8 1.4 1.5 2.5 2.2.5.3.9.6 1.3.8s.6.5.8.8c.2.2.4.5.4.7 0 .3.1.5.1.8 0 .8-.3 1.4-.8 1.8s-1.4.7-2.5.7-.8 0-1.2-.1c-.4 0-.8-.2-1.2-.3s-.7-.3-1.1-.4c-.3-.2-.6-.3-.8-.5l-.6 2.6c.3.2.6.3 1 .4l1.2.3c.4 0 .8.2 1.2.2h1.1c1.2 0 2.2-.1 3-.4s1.5-.7 2-1.1c.5-.5.9-1 1.1-1.6s.4-1.2.4-1.9c0-1-.3-1.8-.8-2.6-.6-.8-1.4-1.5-2.7-2.2-.4-.2-.8-.5-1.1-.7s-.6-.5-.8-.7-.4-.5-.5-.8c0-.3-.2-.6-.2-.9 0-.8.3-1.4.9-1.9s1.4-.7 2.4-.7 1.3.1 1.9.3 1.2.5 1.7.8Zm-117.9-77.4 10.4-5C152.1 136 67.7 141 53.4 152.4c21.4-7.6 88.7-8.3 102.7 51.2h11.5Zm.2 0c1.9 6.6 1.9 13.5 1.9 21.4v12.2l-25.6-33.6h-11.1v54.7h11.9v-34.7l26.5 34.7h10.2V230c0-7.9 0-15.6-2.1-21.4M44.5 164.3c-2.5-72.2 70.3-33.2 101.4-58.2 0 0-7.5 3.8-30.2 3.2-49.7-2-83.1-3.1-71.2 55m-23.3 60v.2c0 10.9 7.1 14 18.2 16.8 9.2 2.3 11.1 3.9 11.1 7 0 3.4-3 5.3-7.9 5.3s-11.5-2.6-16.4-6.7l-7.1 8.6c6.6 5.9 15 8.8 23.3 8.8 11.8 0 20.2-6.1 20.2-17v-.2c0-9.5-6.3-13.6-17.4-16.5-9.5-2.4-11.8-3.6-11.8-7.2 0-2.8 2.4-4.9 7.1-4.9s9.4 2 14.3 5.4l6.3-9.1c-5.6-4.5-12.4-7-20.4-7s-19.2 6.6-19.2 16.5m336.4-97.4c-30.3-31-84.8-52.6-137.2-57.9-75.9-7.6-107.1 35.3-107.1 35.3 27.3-28.9 90.2-26.2 167.6.2 19 6.5 38.8 16.4 55.4 25.7-29.9-11.6-68.9-13.1-91.2-19 58.5 15.5 102.9 49.4 112.4 95.9v-80.2Zm-208.5 90.6"/></svg>